<svg xmlns="http://www.w3.org/2000/svg" viewBox="0 0 900 600">
  <rect width="900" height="600" fill="#de2910"/>
  <g fill="#ffde00">
    <path d="M 150,100 185.35,205.77 299.17,98.84 219.8,180.61 335.2,197.52 225.77,225.77 268.84,339.17 174.59,250.61 141.18,335.2 125.23,225.77 5.83,258.84 98.84,174.59 0,141.18 110.83,125.23 Z"/>
    <path d="M 310,70 330.23,113.06 375,93.3 350.47,125 392.35,145.63 345.31,151.77 355.3,200 325,165.47 294.7,200 304.69,151.77 257.65,145.63 299.53,125 275,93.3 319.77,113.06 Z"/>
    <path d="M 350,160 362.59,185.8 390,178.2 375.56,200 398.41,218.2 370,210.6 370,240 350,220 330,240 330,210.6 301.59,218.2 324.44,200 310,178.2 337.41,185.8 Z"/>
    <path d="M 290,250 302.59,275.8 330,268.2 315.56,290 338.41,308.2 310,300.6 310,330 290,310 270,330 270,300.6 241.59,308.2 264.44,290 250,268.2 277.41,275.8 Z"/>
    <path d="M 210,190 222.59,215.8 250,208.2 235.56,230 258.41,248.2 230,240.6 230,270 210,250 190,270 190,240.6 161.59,248.2 184.44,230 170,208.2 197.41,215.8 Z"/>
  </g>
</svg> 