<?xml version="1.0" encoding="UTF-8"?>
<!-- Generator: Adobe Illustrator 27.8.1, SVG Export Plug-In . SVG Version: 6.00 Build 0)  -->
<svg xmlns="http://www.w3.org/2000/svg" xmlns:xlink="http://www.w3.org/1999/xlink" version="1.1" id="Layer_1" x="0px" y="0px" viewBox="0 0 64.5 67" style="enable-background:new 0 0 64.5 67;" xml:space="preserve">
<style type="text/css">
	.st0{fill:#58595B;}
	
		.st1{clip-path:url(#SVGID_00000012432588246623533360000000548206968553764031_);fill:url(#SVGID_00000080192425483967084120000016832475664825178249_);}
	.st2{clip-path:url(#SVGID_00000012465281723581260820000005446567763639159690_);}
	
		.st3{clip-path:url(#SVGID_00000166678174140498138730000017564436193757442178_);fill:url(#SVGID_00000144322641100992222000000002506029383479018146_);}
	
		.st4{clip-path:url(#SVGID_00000150078420658165042540000000498527108998991020_);fill:url(#SVGID_00000114794627939970953870000014786399700163735473_);}
	
		.st5{clip-path:url(#SVGID_00000103945013169342778820000002015701177836487604_);fill:url(#SVGID_00000139292042285080533550000012800293904128627607_);}
	
		.st6{clip-path:url(#SVGID_00000111904136547636893490000000307398258781542569_);fill:url(#SVGID_00000073710617527576837900000014653905261112686737_);}
	
		.st7{clip-path:url(#SVGID_00000145058274332000498790000013834907508280720571_);fill:url(#SVGID_00000050644574481959932190000013396418325032705675_);}
	
		.st8{clip-path:url(#SVGID_00000142149287126515218660000003032009047017437608_);fill:url(#SVGID_00000106116989280264788780000011168080463334587034_);}
	
		.st9{clip-path:url(#SVGID_00000128470395790343266030000006681878849877806774_);fill:url(#SVGID_00000132074017636631557620000005718651290681439664_);}
	
		.st10{clip-path:url(#SVGID_00000160161523305304263690000010806779392436976566_);fill:url(#SVGID_00000069379055845877509740000007938835081483191727_);}
	
		.st11{clip-path:url(#SVGID_00000054256902440188042270000004079058668882322078_);fill:url(#SVGID_00000083782822714504023280000017267543280359960747_);}
	
		.st12{clip-path:url(#SVGID_00000094607969743022045470000014115261740756946583_);fill:url(#SVGID_00000085970263854083806040000008269214661784724614_);}
	
		.st13{clip-path:url(#SVGID_00000043432167743857234340000009935235481057695667_);fill:url(#SVGID_00000035524561869027260130000008066329641463343775_);}
	
		.st14{clip-path:url(#SVGID_00000118364241306834900240000015733413603504436888_);fill:url(#SVGID_00000132786868898330091390000012740042609569024411_);}
	.st15{clip-path:url(#SVGID_00000098214328770322389700000013751507879381789338_);}
	
		.st16{clip-path:url(#SVGID_00000129164134162277905920000006976303651646912143_);fill:url(#SVGID_00000079443708335944037570000008629479447705172141_);}
	
		.st17{clip-path:url(#SVGID_00000116237857109760356910000004281598171225733304_);fill:url(#SVGID_00000089572348212394018270000015150120375830299027_);}
	
		.st18{clip-path:url(#SVGID_00000154424737434905032190000003395618993987387296_);fill:url(#SVGID_00000091698141196815272640000015583617041739120545_);}
	
		.st19{clip-path:url(#SVGID_00000173840555814719840940000006533186687451565466_);fill:url(#SVGID_00000023993059511195302410000007144259707878955938_);}
	
		.st20{clip-path:url(#SVGID_00000176003193362043346780000000237881972391642023_);fill:url(#SVGID_00000165938645743388669370000017857882748933908097_);}
	
		.st21{clip-path:url(#SVGID_00000033364500468377186470000007980370874596971665_);fill:url(#SVGID_00000138571047905445800380000003687982316097089674_);}
	
		.st22{clip-path:url(#SVGID_00000115488716126760310450000017363590436817005225_);fill:url(#SVGID_00000034788541702265923090000010072473466949712822_);}
	
		.st23{clip-path:url(#SVGID_00000018953559174138929160000013799863330833442220_);fill:url(#SVGID_00000103240565175823246050000004733095782754496928_);}
	
		.st24{clip-path:url(#SVGID_00000018955866415008752620000017735079336318459530_);fill:url(#SVGID_00000029744132493921130350000013638326671853371524_);}
	
		.st25{clip-path:url(#SVGID_00000084492020306872399320000011375464947379466625_);fill:url(#SVGID_00000032619547686541218930000002803789072028326036_);}
	
		.st26{clip-path:url(#SVGID_00000098903741047650194990000005807402141325999533_);fill:url(#SVGID_00000168086581296803819060000012039124865913646976_);}
	
		.st27{clip-path:url(#SVGID_00000129184480105249915320000011010554275179992456_);fill:url(#SVGID_00000031895630819804511080000000738120277637338550_);}
	
		.st28{clip-path:url(#SVGID_00000042726844763244317330000010438464348605061281_);fill:url(#SVGID_00000065036238826410818910000016710626819525097093_);}
	
		.st29{clip-path:url(#SVGID_00000011735615719606985040000001816664625285823419_);fill:url(#SVGID_00000097501662117547982750000017256648523277891239_);}
</style>
<g>
	<path class="st0" d="M5.3,52.3C5.3,52.3,5.3,52.3,5.3,52.3c0.5-1.3,1-2.6,1.6-3.8C7.4,49.7,8,51,8.5,52.3c0,0,0,0,0,0H5.3z    M10.1,51.5c-0.7-1.8-1.5-3.5-2.3-5.3c-0.2-0.4-0.4-0.8-0.6-1.3l-0.3-0.6L6.6,45c-0.2,0.4-0.4,0.8-0.6,1.3   c-0.9,1.7-1.6,3.5-2.3,5.3c-0.6,1.6-1.2,3.4-1.7,5.1L1.8,57h1.9l0.1-0.2c0.3-0.9,0.6-1.9,0.9-2.9h4.4c0.3,1,0.7,1.9,0.9,2.9   l0.1,0.2H12l-0.1-0.4C11.3,54.9,10.8,53.2,10.1,51.5"></path>
	<path class="st0" d="M17.3,50.3l-0.9-0.4c-1.2-0.6-1.5-0.9-1.5-1.7c0-0.8,0.5-1.2,1.4-1.2c0.8,0,1.3,0.3,1.7,1l0.2,0.3l1.5-0.9   l-0.2-0.3c-0.7-1.2-1.8-1.8-3.2-1.8c-1.9,0-3.2,1.2-3.2,2.9c0,1.7,1,2.6,2.6,3.3l0.9,0.4c1.4,0.6,1.9,1.1,1.9,2   c0,1.1-1,1.5-1.9,1.5c-1.5,0-2.1-0.8-2.5-1.5l-0.2-0.3l-1.5,0.8l0.1,0.3c0.5,1.1,1.7,2.4,4.1,2.4c2.2,0,3.7-1.3,3.7-3.2   C20.3,51.9,18.9,51,17.3,50.3"></path>
	<polygon class="st0" points="20.7,47.1 24.1,47.1 24.1,57 25.9,57 25.9,47.1 29.2,47.1 29.2,45.4 20.7,45.4  "></polygon>
	<rect x="49.6" y="45.4" class="st0" width="1.8" height="11.6"></rect>
	<path class="st0" d="M56,52.3C56.1,52.3,56.1,52.3,56,52.3c0.5-1.3,1-2.6,1.6-3.8c0.6,1.2,1.1,2.5,1.6,3.8c0,0,0,0,0,0H56z    M62.6,56.6c-0.5-1.7-1.1-3.4-1.7-5.1c-0.7-1.8-1.5-3.5-2.3-5.3c-0.2-0.4-0.4-0.8-0.6-1.3l-0.3-0.6L57.4,45   c-0.2,0.4-0.4,0.8-0.6,1.3c-0.9,1.7-1.6,3.5-2.3,5.3c-0.6,1.6-1.2,3.4-1.7,5.1L52.6,57h1.9l0.1-0.2c0.3-0.9,0.6-1.9,0.9-2.9h4.4   c0.3,1,0.7,1.9,0.9,2.9l0.1,0.2h1.9L62.6,56.6z"></path>
	<path class="st0" d="M41.8,52.5v-5.3h0.9c2,0,3.1,0.9,3.1,2.7c0,1.8-1,2.7-3.1,2.7H41.8z M47.6,49.8c0-2.7-1.9-4.4-4.9-4.4H40V57   h1.8v-2.9h1c0.3,0,0.7,0,1-0.1l2.1,3H48l-2.5-3.6C46.9,52.8,47.6,51.5,47.6,49.8"></path>
	<polygon class="st0" points="32.5,53.3 37.4,53.3 37.4,51.6 32.5,51.6 32.5,47.1 38,47.1 38,45.4 30.7,45.4 30.7,57 38.2,57    38.2,55.3 32.5,55.3  "></polygon>
	<g>
		<defs>
			<path id="SVGID_1_" d="M32.2,6.2c0,0.6,0.5,1,1,1c0.6,0,1-0.5,1-1c0-0.6-0.5-1-1-1C32.7,5.2,32.2,5.7,32.2,6.2 M27.2,2.1     c0.5,0.8,1.3,2.4,1.9,3.7c0.6,1.5,1,2.4,1.7,3.3c0.6,0.8,1.5,1,2.4,1c0.3,0,0.9-0.1,1.4-0.4c0-0.6-0.1-1.4-0.1-2.2     C34.1,7.8,33.8,8,33.7,8c-0.4,0.1-0.7,0.2-1.2,0c-0.5-0.2-0.9-1-1-1.3c-0.2-0.5-0.9-2.2-1.3-3C29.7,3,29.2,2,28.9,1.3     C28.3,1.6,27.7,1.8,27.2,2.1"></path>
		</defs>
		<clipPath id="SVGID_00000080909705664177178220000016229275964134653057_">
			<use xlink:href="#SVGID_1_" style="overflow:visible;"></use>
		</clipPath>
		
			<radialGradient id="SVGID_00000109716143892568615420000001062937732519132838_" cx="-353.2296" cy="454.6409" r="0.159" gradientTransform="matrix(27.8661 0 0 -33.8329 9873.9658 15387.5674)" gradientUnits="userSpaceOnUse">
			<stop offset="0" style="stop-color:#005385"></stop>
			<stop offset="1" style="stop-color:#1E2D4E"></stop>
		</radialGradient>
		
			<rect x="27.2" y="1.3" style="clip-path:url(#SVGID_00000080909705664177178220000016229275964134653057_);fill:url(#SVGID_00000109716143892568615420000001062937732519132838_);" width="7.3" height="8.9"></rect>
	</g>
	<g>
		<defs>
			<path id="SVGID_00000147931806475190008970000014182140355889871765_" d="M32.2,6.2c0,0.6,0.5,1,1,1c0.6,0,1-0.5,1-1     c0-0.6-0.5-1-1-1C32.7,5.2,32.2,5.7,32.2,6.2 M27.2,2.1c0.5,0.8,1.3,2.4,1.9,3.7c0.6,1.5,1,2.4,1.7,3.3c0.6,0.8,1.5,1,2.4,1     c0.3,0,0.9-0.1,1.4-0.4c0-0.6-0.1-1.4-0.1-2.2C34.1,7.8,33.8,8,33.7,8c-0.4,0.1-0.7,0.2-1.2,0c-0.5-0.2-0.9-1-1-1.3     c-0.2-0.5-0.9-2.2-1.3-3C29.7,3,29.2,2,28.9,1.3C28.3,1.6,27.7,1.8,27.2,2.1"></path>
		</defs>
		<clipPath id="SVGID_00000066500254683229924250000006618011967490546323_">
			<use xlink:href="#SVGID_00000147931806475190008970000014182140355889871765_" style="overflow:visible;"></use>
		</clipPath>
		<g style="clip-path:url(#SVGID_00000066500254683229924250000006618011967490546323_);">
			<defs>
				<rect id="SVGID_00000168806639048555380510000010810184982301220533_" x="26" y="-12.7" width="7.3" height="8.7"></rect>
			</defs>
			<clipPath id="SVGID_00000011023561131221294750000011588088298273266853_">
				<use xlink:href="#SVGID_00000168806639048555380510000010810184982301220533_" style="overflow:visible;"></use>
			</clipPath>
			
				<radialGradient id="SVGID_00000125588471182845472030000007331658078410651304_" cx="-353.0336" cy="452.0011" r="0.1589" gradientTransform="matrix(27.0055 0 0 -32.0298 9563.5059 14468.7734)" gradientUnits="userSpaceOnUse">
				<stop offset="0" style="stop-color:#AB3E96"></stop>
				<stop offset="0.2703" style="stop-color:#A33B92"></stop>
				<stop offset="0.6945" style="stop-color:#8C3488"></stop>
				<stop offset="1" style="stop-color:#782E7E"></stop>
			</radialGradient>
			
				<rect x="26" y="-12.7" style="clip-path:url(#SVGID_00000011023561131221294750000011588088298273266853_);fill:url(#SVGID_00000125588471182845472030000007331658078410651304_);" width="7.3" height="8.7"></rect>
		</g>
	</g>
	<g>
		<defs>
			<path id="SVGID_00000111892860505774850870000018282034992832405647_" d="M20.7,27.5c0.6,0.1,1.4,0.3,1.8,0.4     c0.7,0.1,1.6,0.2,2.1,0.2c0.1,0,0.3,0,0.5,0c0-0.1,0-0.3,0.1-0.4c0.1-0.3,0.2-0.7,0.4-1l-0.2,0c-0.9,0-2.1-0.2-2.9-0.5     c-0.5-0.1-0.9-0.3-1.3-0.5h0c-0.2-0.1-0.4-0.2-0.6-0.2c-0.2-0.1-0.8-0.3-1.2-0.4C19.7,25.9,20.2,26.7,20.7,27.5"></path>
		</defs>
		<clipPath id="SVGID_00000170963993095935043980000004092684538714175385_">
			<use xlink:href="#SVGID_00000111892860505774850870000018282034992832405647_" style="overflow:visible;"></use>
		</clipPath>
		
			<radialGradient id="SVGID_00000147901653486812280280000016924980509217235840_" cx="-351.4756" cy="457.0865" r="0.159" gradientTransform="matrix(19.6222 0 0 -19.6222 6919.1421 8995.5732)" gradientUnits="userSpaceOnUse">
			<stop offset="0" style="stop-color:#005385"></stop>
			<stop offset="1" style="stop-color:#1E2D4E"></stop>
		</radialGradient>
		
			<rect x="19.3" y="25" style="clip-path:url(#SVGID_00000170963993095935043980000004092684538714175385_);fill:url(#SVGID_00000147901653486812280280000016924980509217235840_);" width="6.2" height="3"></rect>
	</g>
	<g>
		<defs>
			<path id="SVGID_00000026885844143144908520000015264032292973105588_" d="M24.4,31.5c0.3,0.2,0.6,0.4,0.9,0.7l0.1-0.1     c-0.1-0.4-0.2-0.8-0.2-1.2L24.4,31.5z"></path>
		</defs>
		<clipPath id="SVGID_00000164507842303755751790000014289425717070647997_">
			<use xlink:href="#SVGID_00000026885844143144908520000015264032292973105588_" style="overflow:visible;"></use>
		</clipPath>
		
			<radialGradient id="SVGID_00000081616931193416810100000000999226407757105300_" cx="-352.6391" cy="456.8719" r="0.159" gradientTransform="matrix(4.0794 0 0 -5.2231 1463.427 2417.8267)" gradientUnits="userSpaceOnUse">
			<stop offset="0" style="stop-color:#005385"></stop>
			<stop offset="1" style="stop-color:#1E2D4E"></stop>
		</radialGradient>
		
			<rect x="24.4" y="30.9" style="clip-path:url(#SVGID_00000164507842303755751790000014289425717070647997_);fill:url(#SVGID_00000081616931193416810100000000999226407757105300_);" width="1" height="1.3"></rect>
	</g>
	<g>
		<defs>
			<path id="SVGID_00000079463107655127831780000005202933236493758373_" d="M24.4,28.7c-0.4,0.1-0.8,0.2-1.2,0.4     c-0.3,0.1-0.8,0.2-1.2,0.2c0.4,0.5,0.9,0.9,1.3,1.4c0.4-0.2,1-0.4,1.4-0.6c0.1,0,0.2-0.1,0.3-0.1c0-0.4,0-0.9,0-1.3L24.4,28.7z"></path>
		</defs>
		<clipPath id="SVGID_00000139986845459060063010000004306870713546732724_">
			<use xlink:href="#SVGID_00000079463107655127831780000005202933236493758373_" style="overflow:visible;"></use>
		</clipPath>
		
			<radialGradient id="SVGID_00000087383605140280796960000010238805184234015872_" cx="-351.5279" cy="456.7593" r="0.159" gradientTransform="matrix(9.5288 0 0 -9.5288 3373.1694 4381.9849)" gradientUnits="userSpaceOnUse">
			<stop offset="0" style="stop-color:#005385"></stop>
			<stop offset="1" style="stop-color:#1E2D4E"></stop>
		</radialGradient>
		
			<rect x="22" y="28.6" style="clip-path:url(#SVGID_00000139986845459060063010000004306870713546732724_);fill:url(#SVGID_00000087383605140280796960000010238805184234015872_);" width="3" height="2.1"></rect>
	</g>
	<g>
		<defs>
			<path id="SVGID_00000004514077092270067110000008439528853122796424_" d="M19,11.3c0.5,0.6,1.2,1.5,1.7,2.3c1,1.5,1.4,2.3,2,3.1     c0.6,0.8,1.9,1.8,2.9,2.4c1.1,0.6,2.6,0.9,3.5,1c0.6,0.1,1.6,0,2.4-0.1c0.4-0.5,1-1,1.5-1.8c-0.4,0-0.9,0.1-1.3,0.1     c-3.9,0.1-4.9-0.7-5.7-1.2c-0.8-0.4-2-1.7-2.7-2.5c-0.6-0.8-1.6-2.1-1.9-2.7c-0.3-0.4-1.2-1.5-1.8-2.2     C19.4,10.3,19.2,10.8,19,11.3"></path>
		</defs>
		<clipPath id="SVGID_00000148646306067748503080000018391035703149544616_">
			<use xlink:href="#SVGID_00000004514077092270067110000008439528853122796424_" style="overflow:visible;"></use>
		</clipPath>
		
			<radialGradient id="SVGID_00000089537618951561587280000000644764715827368367_" cx="-352.1947" cy="456.7701" r="0.159" gradientTransform="matrix(44.3758 0 0 -44.3758 15654.918 20284.4688)" gradientUnits="userSpaceOnUse">
			<stop offset="0" style="stop-color:#005385"></stop>
			<stop offset="1" style="stop-color:#1E2D4E"></stop>
		</radialGradient>
		
			<rect x="19" y="9.7" style="clip-path:url(#SVGID_00000148646306067748503080000018391035703149544616_);fill:url(#SVGID_00000089537618951561587280000000644764715827368367_);" width="14.1" height="10.4"></rect>
	</g>
	<g>
		<defs>
			<path id="SVGID_00000090277087794000449810000017403405167353791124_" d="M18,14.9c0.6,0.6,1.4,1.5,2.1,2.3     c1,1.2,2.1,2.6,3.3,3.4c1.1,0.8,2.9,1.6,4.6,1.5c0.2,0,0.4,0,0.5,0c0.2,0,0.6,0,0.8,0c0.7-0.6,1.3-1.2,1.7-1.5     c-0.6,0.1-1.2,0.1-1.7,0.1c-2.3-0.2-4-1-5.3-1.9c-1.3-0.9-3.3-3.1-4-3.9c-0.4-0.5-1.2-1.3-1.8-1.8C18.2,13.6,18.1,14.2,18,14.9"></path>
		</defs>
		<clipPath id="SVGID_00000028296455223756870470000016769743407074456996_">
			<use xlink:href="#SVGID_00000090277087794000449810000017403405167353791124_" style="overflow:visible;"></use>
		</clipPath>
		
			<radialGradient id="SVGID_00000084513834673575535130000009694750483017891263_" cx="-352.0204" cy="456.9311" r="0.1591" gradientTransform="matrix(41.2206 0 0 -41.2206 14535.0186 18852.5)" gradientUnits="userSpaceOnUse">
			<stop offset="0" style="stop-color:#005385"></stop>
			<stop offset="1" style="stop-color:#1E2D4E"></stop>
		</radialGradient>
		
			<rect x="18" y="13" style="clip-path:url(#SVGID_00000028296455223756870470000016769743407074456996_);fill:url(#SVGID_00000084513834673575535130000009694750483017891263_);" width="13.1" height="9.1"></rect>
	</g>
	<g>
		<defs>
			<path id="SVGID_00000061445218901360400370000011326614483166216378_" d="M17.7,17.8c0,0.4,0,0.8,0,1.2c0.7,0.7,1.8,1.8,2.5,2.4     c1,0.9,2,1.6,3.2,2.2c1.2,0.6,2.6,0.6,3.8,0.6c0.5-0.5,1-1,1.5-1.5l-0.1,0c-0.8,0.1-2.1,0-3.8-0.4c-1.7-0.4-3.5-2.1-4.6-2.9     c-0.7-0.5-1.9-1.9-2.6-2.6C17.8,17,17.7,17.4,17.7,17.8"></path>
		</defs>
		<clipPath id="SVGID_00000120535058131293187640000009105728455357526147_">
			<use xlink:href="#SVGID_00000061445218901360400370000011326614483166216378_" style="overflow:visible;"></use>
		</clipPath>
		
			<radialGradient id="SVGID_00000066508702332981799630000015726561729939280566_" cx="-351.8349" cy="456.989" r="0.159" gradientTransform="matrix(34.8648 0 0 -34.8648 12289.9424 15953.2246)" gradientUnits="userSpaceOnUse">
			<stop offset="0" style="stop-color:#005385"></stop>
			<stop offset="1" style="stop-color:#1E2D4E"></stop>
		</radialGradient>
		
			<rect x="17.7" y="16.7" style="clip-path:url(#SVGID_00000120535058131293187640000009105728455357526147_);fill:url(#SVGID_00000066508702332981799630000015726561729939280566_);" width="11.1" height="7.5"></rect>
	</g>
	<g>
		<defs>
			<path id="SVGID_00000087406909720505091260000013181335114924883636_" d="M20.5,8.3c0.3,0.4,0.6,0.9,1,1.5     c0.8,1.3,1.5,2.6,2.5,3.9c0.7,0.9,1.9,2.2,3.4,3c1.4,0.9,2.9,1,4.4,1c0.5,0,1.2,0,1.7-0.1c0.3-0.6,0.6-1.2,0.8-1.9     c0-0.1,0-0.1,0.1-0.2c-0.3,0.1-0.7,0.2-0.9,0.2c-1.5,0.4-4,0.1-5.8-1.1c-1.8-1.2-2.8-2.8-4-4.7c-0.7-1.3-1.6-2.5-2.1-3.1     C21.2,7.3,20.8,7.8,20.5,8.3"></path>
		</defs>
		<clipPath id="SVGID_00000047766711224113817720000005677525288967921289_">
			<use xlink:href="#SVGID_00000087406909720505091260000013181335114924883636_" style="overflow:visible;"></use>
		</clipPath>
		
			<radialGradient id="SVGID_00000098182074869678555110000006312404880908539053_" cx="-352.369" cy="456.3999" r="0.159" gradientTransform="matrix(43.5031 0 0 -43.5031 15356.5566 19867.0859)" gradientUnits="userSpaceOnUse">
			<stop offset="0" style="stop-color:#005385"></stop>
			<stop offset="1" style="stop-color:#1E2D4E"></stop>
		</radialGradient>
		
			<rect x="20.5" y="6.8" style="clip-path:url(#SVGID_00000047766711224113817720000005677525288967921289_);fill:url(#SVGID_00000098182074869678555110000006312404880908539053_);" width="13.8" height="11"></rect>
	</g>
	<g>
		<defs>
			<path id="SVGID_00000178895728101547321600000012592295771436084612_" d="M22.3,5.9c0.5,0.7,1.5,2.1,2.1,3.2     c0.9,1.5,1.4,2.8,2.6,3.9c1.2,1.2,2.7,2.1,4.2,2.2c1,0.1,2.2,0,3.2-0.3c0.2-0.8,0.2-1.4,0.2-2.1c-0.3,0.1-0.6,0.2-0.7,0.3     c-1.1,0.4-2,0.2-3.1,0.1c-1.1-0.2-2.6-1.2-3.4-2.3c-0.4-0.5-0.9-1.4-1.4-2.4c-0.5-1-0.8-1.6-1.3-2.4C24.5,5.7,24,5,23.7,4.6     C23.2,5,22.7,5.4,22.3,5.9"></path>
		</defs>
		<clipPath id="SVGID_00000150066685301190014240000013652132395215837084_">
			<use xlink:href="#SVGID_00000178895728101547321600000012592295771436084612_" style="overflow:visible;"></use>
		</clipPath>
		
			<radialGradient id="SVGID_00000093177763402693101900000009959540758909613215_" cx="-352.5613" cy="455.7709" r="0.159" gradientTransform="matrix(38.8953 0 0 -38.8953 13741.4688 17737.2363)" gradientUnits="userSpaceOnUse">
			<stop offset="0" style="stop-color:#005385"></stop>
			<stop offset="1" style="stop-color:#1E2D4E"></stop>
		</radialGradient>
		
			<rect x="22.3" y="4.6" style="clip-path:url(#SVGID_00000150066685301190014240000013652132395215837084_);fill:url(#SVGID_00000093177763402693101900000009959540758909613215_);" width="12.4" height="10.8"></rect>
	</g>
	<g>
		<defs>
			<path id="SVGID_00000085223477674121272300000005559416164726138246_" d="M18.7,23.4c0.8,0.5,2.2,1.3,2.9,1.6     c0.5,0.2,1,0.5,1.6,0.6c0.7,0.2,1.7,0.5,2.6,0.6c0.3-0.6,0.8-1.2,1.3-1.7c-1,0-2,0-2.7-0.2c-1.1-0.3-3.3-1.5-4.2-2.1     c-0.5-0.3-1.4-1-2.1-1.6C18.1,21.6,18.4,22.5,18.7,23.4"></path>
		</defs>
		<clipPath id="SVGID_00000024000397723041450020000007795836563910401965_">
			<use xlink:href="#SVGID_00000085223477674121272300000005559416164726138246_" style="overflow:visible;"></use>
		</clipPath>
		
			<radialGradient id="SVGID_00000052783947886246540740000006740882073850631566_" cx="-351.6514" cy="457.1051" r="0.159" gradientTransform="matrix(28.3956 0 0 -28.3956 10007.873 13003.2686)" gradientUnits="userSpaceOnUse">
			<stop offset="0" style="stop-color:#005385"></stop>
			<stop offset="1" style="stop-color:#1E2D4E"></stop>
		</radialGradient>
		
			<rect x="18" y="20.7" style="clip-path:url(#SVGID_00000024000397723041450020000007795836563910401965_);fill:url(#SVGID_00000052783947886246540740000006740882073850631566_);" width="9" height="5.6"></rect>
	</g>
	<g>
		<defs>
			<path id="SVGID_00000176752446256395787760000008682063418105228190_" d="M24.7,3.7c0.3,0.5,1,1.5,1.6,2.8c0.8,1.7,1.3,2.9,2,4     c0.9,1.3,2.1,2.3,4.5,2.2c0.6,0,1.3-0.2,1.9-0.4c0-0.6-0.1-1.3-0.1-2c-0.3,0.2-0.7,0.3-1,0.4c-0.6,0.1-1.1,0.1-2.2-0.3     c-1-0.4-1.8-1.3-2.4-2.4c-0.5-1.1-1-2-1.6-3.2C27,4,26.4,3.2,26.1,2.8C25.6,3.1,25.2,3.4,24.7,3.7"></path>
		</defs>
		<clipPath id="SVGID_00000017513000187476949240000015600141744046633871_">
			<use xlink:href="#SVGID_00000176752446256395787760000008682063418105228190_" style="overflow:visible;"></use>
		</clipPath>
		
			<radialGradient id="SVGID_00000021813376028531105880000003409056248955319944_" cx="-352.9" cy="454.6192" r="0.159" gradientTransform="matrix(31.3012 0 0 -31.3012 11075.9082 14237.8711)" gradientUnits="userSpaceOnUse">
			<stop offset="0" style="stop-color:#005385"></stop>
			<stop offset="1" style="stop-color:#1E2D4E"></stop>
		</radialGradient>
		
			<rect x="24.7" y="2.8" style="clip-path:url(#SVGID_00000017513000187476949240000015600141744046633871_);fill:url(#SVGID_00000021813376028531105880000003409056248955319944_);" width="10" height="10"></rect>
	</g>
	<g>
		<defs>
			<path id="SVGID_00000034792536782902864480000015884258548288666038_" d="M34.9,7.1L34.9,7.1L34.9,7.1     C34.9,7.1,34.9,7.1,34.9,7.1 M34.9,7.1C34.9,7.1,34.9,7.1,34.9,7.1L34.9,7.1z"></path>
		</defs>
		<clipPath id="SVGID_00000017510476021654435890000012147399504827877010_">
			<use xlink:href="#SVGID_00000034792536782902864480000015884258548288666038_" style="overflow:visible;"></use>
		</clipPath>
		
			<radialGradient id="SVGID_00000165947835481023142740000006416605830897713827_" cx="-1183.9093" cy="328.572" r="0.159" gradientTransform="matrix(6.725310e-02 0 0 -1.0771 114.571 360.9973)" gradientUnits="userSpaceOnUse">
			<stop offset="0" style="stop-color:#005385"></stop>
			<stop offset="1" style="stop-color:#1E2D4E"></stop>
		</radialGradient>
		
			<rect x="34.9" y="7.1" style="clip-path:url(#SVGID_00000017510476021654435890000012147399504827877010_);fill:url(#SVGID_00000165947835481023142740000006416605830897713827_);" width="0" height="0"></rect>
	</g>
	<g>
		<defs>
			<path id="SVGID_00000123430390152024814110000012379108038338208173_" d="M34.9,7.1L34.9,7.1L34.9,7.1     C34.9,7.1,34.9,7.1,34.9,7.1 M34.9,7.1C34.9,7.1,34.9,7.1,34.9,7.1L34.9,7.1z"></path>
		</defs>
		<clipPath id="SVGID_00000103964903924804096690000015577254125178923147_">
			<use xlink:href="#SVGID_00000123430390152024814110000012379108038338208173_" style="overflow:visible;"></use>
		</clipPath>
		<g style="clip-path:url(#SVGID_00000103964903924804096690000015577254125178923147_);">
			<defs>
				<rect id="SVGID_00000052076354191792775490000015404921655751209353_" x="34.9" y="7.1" width="0" height="0"></rect>
			</defs>
			<clipPath id="SVGID_00000183939815436018298040000016495617925586141877_">
				<use xlink:href="#SVGID_00000052076354191792775490000015404921655751209353_" style="overflow:visible;"></use>
			</clipPath>
			
				<radialGradient id="SVGID_00000139975345498682202750000004008351618240958356_" cx="-355.9094" cy="458.3936" r="0.159" gradientTransform="matrix(15.01 0 0 -240.3947 5377.6704 110201.4922)" gradientUnits="userSpaceOnUse">
				<stop offset="0" style="stop-color:#AB3E96"></stop>
				<stop offset="0.2703" style="stop-color:#A33B92"></stop>
				<stop offset="0.6945" style="stop-color:#8C3488"></stop>
				<stop offset="1" style="stop-color:#782E7E"></stop>
			</radialGradient>
			
				<rect x="34.9" y="7.1" style="clip-path:url(#SVGID_00000183939815436018298040000016495617925586141877_);fill:url(#SVGID_00000139975345498682202750000004008351618240958356_);" width="0" height="0"></rect>
		</g>
	</g>
	<g>
		<defs>
			<path id="SVGID_00000119082893785258879960000005771166731904420770_" d="M34.9,7.1L34.9,7.1l0.2,2.1c1.2-2.7,1.1-4.6,1.1-4.6     l-1.5-1.2C34.7,3.3,34.9,6.8,34.9,7.1"></path>
		</defs>
		<clipPath id="SVGID_00000174563647584174213900000003719848231119436213_">
			<use xlink:href="#SVGID_00000119082893785258879960000005771166731904420770_" style="overflow:visible;"></use>
		</clipPath>
		
			<radialGradient id="SVGID_00000140695864155289390520000001997835478984878263_" cx="-355.1923" cy="457.0257" r="0.159" gradientTransform="matrix(18.3403 0 0 -73.4757 6549.7803 33586.5117)" gradientUnits="userSpaceOnUse">
			<stop offset="0" style="stop-color:#005385"></stop>
			<stop offset="1" style="stop-color:#1E2D4E"></stop>
		</radialGradient>
		
			<rect x="34.7" y="3.3" style="clip-path:url(#SVGID_00000174563647584174213900000003719848231119436213_);fill:url(#SVGID_00000140695864155289390520000001997835478984878263_);" width="1.6" height="5.8"></rect>
	</g>
	<g>
		<defs>
			<path id="SVGID_00000107550350063342950860000010522562461094109367_" d="M30.9,37.4c0,0.6,0.5,1,1,1c0.6,0,1-0.5,1-1     c0-0.6-0.5-1-1-1C31.4,36.4,30.9,36.8,30.9,37.4 M28.9,35.4c-0.1,0.1-0.1,0.2-0.1,0.2l0.7,1.1c0,0,0.1-0.1,0.2-0.2     c0.1-0.2,0.3-0.3,0.4-0.5c0.2-0.2,0.8-0.6,1.8-0.6c0.8,0,1.9,1.3,2.3,1.9c0.5-0.1,0.9-0.2,1.4-0.3c-0.3-0.5-0.8-1.2-1.2-1.6     c-0.6-0.6-1.4-1.3-2.9-1.4c0,0-0.1,0-0.1,0C30.2,33.9,29.2,35,28.9,35.4"></path>
		</defs>
		<clipPath id="SVGID_00000036217660220942817900000000918114355657951407_">
			<use xlink:href="#SVGID_00000107550350063342950860000010522562461094109367_" style="overflow:visible;"></use>
		</clipPath>
		
			<radialGradient id="SVGID_00000104682839933397822570000005027879933060795567_" cx="-353.9796" cy="459.4803" r="0.159" gradientTransform="matrix(21.1517 0 0 -21.1517 7519.5693 9754.3662)" gradientUnits="userSpaceOnUse">
			<stop offset="0" style="stop-color:#005385"></stop>
			<stop offset="1" style="stop-color:#1E2D4E"></stop>
		</radialGradient>
		
			<rect x="28.8" y="33.9" style="clip-path:url(#SVGID_00000036217660220942817900000000918114355657951407_);fill:url(#SVGID_00000104682839933397822570000005027879933060795567_);" width="6.8" height="4.5"></rect>
	</g>
	<g>
		<defs>
			<path id="SVGID_00000098914697923217799610000011353225440688867467_" d="M27.1,28.3c-0.1,0.4-0.1,0.8-0.1,1.2     c0.6-0.1,1.2-0.1,2.2-0.1c1.3,0,2.4,0.1,2.7,0.2c0.6,0.1,2.1,0.4,3.1,0.6c1,0.3,1.8,0.5,3.1,0.8c1.5,0.3,2.1,0.4,3.5,0.4     c0.6,0,1.8-0.1,2.4-0.1c0.4-0.6,0.8-1.2,1.1-1.8c-0.5,0.1-1.2,0.2-1.6,0.2c-1.4,0.1-2.1,0-3.6-0.2c-1.5-0.1-2.9-0.5-4-0.8     c-1.1-0.3-2.4-0.5-4.3-0.5c-0.3,0-0.7,0-1.1,0C29.2,28.2,27.8,28.3,27.1,28.3"></path>
		</defs>
		<clipPath id="SVGID_00000016050571882622805710000011277260270306332344_">
			<use xlink:href="#SVGID_00000098914697923217799610000011353225440688867467_" style="overflow:visible;"></use>
		</clipPath>
		
			<radialGradient id="SVGID_00000175313070146561817580000013211624304714665878_" cx="-353.0875" cy="458.643" r="0.159" gradientTransform="matrix(56.8086 0 0 -56.8086 20094.4629 26084.6816)" gradientUnits="userSpaceOnUse">
			<stop offset="0" style="stop-color:#005385"></stop>
			<stop offset="1" style="stop-color:#1E2D4E"></stop>
		</radialGradient>
		
			<rect x="27" y="28.2" style="clip-path:url(#SVGID_00000016050571882622805710000011277260270306332344_);fill:url(#SVGID_00000175313070146561817580000013211624304714665878_);" width="18.1" height="3.2"></rect>
	</g>
	<g>
		<defs>
			<path id="SVGID_00000170967026836748736000000012059673558008777640_" d="M44.2,26.7c-1.2,0.4-3.1,0.4-4.2,0.4     c-1.2,0-4.2-0.6-5.3-0.8c-1-0.2-2.5-0.2-3.5-0.2c-0.9,0-2.9,0.2-3.7,0.3c-0.2,0.4-0.3,0.9-0.4,1.4c0.8-0.1,2-0.1,3.4-0.2     c1.6-0.1,2.1-0.1,3.3,0c1.2,0.1,3.1,0.5,4.1,0.7c1.1,0.2,2.3,0.3,3.2,0.3c0.9,0,2-0.2,3-0.4c0.5-0.1,1.1-0.4,1.5-0.6     c0-0.1,0.1-0.3,0.1-0.4c0.1-0.5,0.2-0.9,0.3-1.4C45.6,26.2,44.9,26.5,44.2,26.7"></path>
		</defs>
		<clipPath id="SVGID_00000014605355709020302660000016584001557963735704_">
			<use xlink:href="#SVGID_00000170967026836748736000000012059673558008777640_" style="overflow:visible;"></use>
		</clipPath>
		
			<radialGradient id="SVGID_00000108294028458626806080000004203169774098609043_" cx="-353.0929" cy="458.4433" r="0.159" gradientTransform="matrix(59.5019 0 0 -59.5019 21046.3594 27305.623)" gradientUnits="userSpaceOnUse">
			<stop offset="0" style="stop-color:#005385"></stop>
			<stop offset="1" style="stop-color:#1E2D4E"></stop>
		</radialGradient>
		
			<rect x="27.2" y="26" style="clip-path:url(#SVGID_00000014605355709020302660000016584001557963735704_);fill:url(#SVGID_00000108294028458626806080000004203169774098609043_);" width="18.9" height="2.8"></rect>
	</g>
	<g>
		<defs>
			<path id="SVGID_00000094608814887898860000000016646986155861480327_" d="M28.3,30.1c-0.5,0.1-1,0.1-1.3,0.2c0,0.5,0.1,1,0.2,1.4     c0.3-0.1,0.9-0.2,1.5-0.2c0.9-0.1,1.4-0.2,2.4-0.1c0.9,0.1,2.3,0.4,3.2,0.8c0.6,0.3,2,0.9,2.7,1.3c0.7,0.3,1.3,0.4,2,0.5     c0.4,0.1,1.6,0.2,2.3,0.2c0.5-0.4,1-0.9,1.5-1.3c-0.5,0-1.1-0.1-1.6-0.1c-0.7,0-1.9-0.3-3.2-0.7c-1.3-0.3-2.2-0.8-3.3-1.2     c-1.1-0.4-2.5-0.8-3.4-0.8c-0.2,0-0.5,0-0.7,0C29.8,29.9,28.8,30,28.3,30.1"></path>
		</defs>
		<clipPath id="SVGID_00000152974559147950784700000004405457139198812858_">
			<use xlink:href="#SVGID_00000094608814887898860000000016646986155861480327_" style="overflow:visible;"></use>
		</clipPath>
		
			<radialGradient id="SVGID_00000011005337291902043090000011406100312028869026_" cx="-353.1253" cy="458.8225" r="0.159" gradientTransform="matrix(49.5261 0 0 -49.5261 17523.832 22755.6816)" gradientUnits="userSpaceOnUse">
			<stop offset="0" style="stop-color:#005385"></stop>
			<stop offset="1" style="stop-color:#1E2D4E"></stop>
		</radialGradient>
		
			<rect x="27" y="29.9" style="clip-path:url(#SVGID_00000152974559147950784700000004405457139198812858_);fill:url(#SVGID_00000011005337291902043090000011406100312028869026_);" width="15.7" height="4.1"></rect>
	</g>
	<g>
		<defs>
			<path id="SVGID_00000166668150955446530650000004400398626368687539_" d="M30.1,31.9c-1.1,0-2.1,0.5-2.6,0.8     c0.2,0.5,0.4,0.9,0.6,1.4c0.3-0.2,0.9-0.4,1.1-0.5c0.4-0.1,1.3-0.2,1.8-0.2c0.5,0,1.3,0.1,2.2,0.4c0.8,0.3,1.5,0.7,2,1     c0.4,0.2,1.7,1.1,2.2,1.5c0.5-0.2,1.1-0.5,1.6-0.8c-0.3-0.3-0.7-0.6-0.9-0.7c-0.3-0.1-1.4-0.9-2-1.2c-0.6-0.3-1.5-0.8-2.3-1.1     C33,32.2,31.6,32,30.1,31.9L30.1,31.9z"></path>
		</defs>
		<clipPath id="SVGID_00000090981477670340688220000005920410318358062475_">
			<use xlink:href="#SVGID_00000166668150955446530650000004400398626368687539_" style="overflow:visible;"></use>
		</clipPath>
		
			<radialGradient id="SVGID_00000109014477765369564440000013997920962051803304_" cx="-353.3052" cy="459.0688" r="0.159" gradientTransform="matrix(35.992 0 0 -35.992 12749.4268 16556.9336)" gradientUnits="userSpaceOnUse">
			<stop offset="0" style="stop-color:#005385"></stop>
			<stop offset="1" style="stop-color:#1E2D4E"></stop>
		</radialGradient>
		
			<rect x="27.5" y="31.9" style="clip-path:url(#SVGID_00000090981477670340688220000005920410318358062475_);fill:url(#SVGID_00000109014477765369564440000013997920962051803304_);" width="11.4" height="4.4"></rect>
	</g>
	<g>
		<defs>
			<path id="SVGID_00000155843341176852848540000009817312293943777176_" d="M38.1,13.6c-0.8,0.4-1.7,1.2-3,1.7     c-0.1,0.4-0.2,0.8-0.3,1.2c-0.1,0.3-0.2,0.6-0.3,0.9c0.6-0.2,1.4-0.6,2.3-1c1.7-0.7,3.7-2.2,4.1-2.5c-0.2-0.5-0.5-1.1-0.7-1.7     C39.8,12.4,38.9,13.2,38.1,13.6"></path>
		</defs>
		<clipPath id="SVGID_00000065043702483703805330000011946335922262491269_">
			<use xlink:href="#SVGID_00000155843341176852848540000009817312293943777176_" style="overflow:visible;"></use>
		</clipPath>
		
			<radialGradient id="SVGID_00000116940637070894958130000004648517772728011944_" cx="-355.4643" cy="454.0809" r="0.159" gradientTransform="matrix(20.3171 0 0 -20.3171 7259.6934 9240.376)" gradientUnits="userSpaceOnUse">
			<stop offset="0" style="stop-color:#005385"></stop>
			<stop offset="1" style="stop-color:#1E2D4E"></stop>
		</radialGradient>
		
			<rect x="34.4" y="12.1" style="clip-path:url(#SVGID_00000065043702483703805330000011946335922262491269_);fill:url(#SVGID_00000116940637070894958130000004648517772728011944_);" width="6.5" height="5.3"></rect>
	</g>
	<g>
		<defs>
			<path id="SVGID_00000161630979353714856610000017688355161559502479_" d="M37.5,10.7c-0.6,0.5-1.4,1.2-2.2,1.7     c0,0.6,0,1.4-0.1,2.2c0.2-0.1,0.5-0.3,0.7-0.4c1.8-1.1,3.5-2.9,4-3.5c-0.2-0.8-0.4-1.4-0.5-2C38.9,9.2,38.2,10.1,37.5,10.7"></path>
		</defs>
		<clipPath id="SVGID_00000132793778829902149250000012666870778812789910_">
			<use xlink:href="#SVGID_00000161630979353714856610000017688355161559502479_" style="overflow:visible;"></use>
		</clipPath>
		
			<radialGradient id="SVGID_00000080928494922719755200000015202726714667351719_" cx="-355.7871" cy="453.9765" r="0.159" gradientTransform="matrix(18.3616 0 0 -23.0399 6570.3306 10471.3252)" gradientUnits="userSpaceOnUse">
			<stop offset="0" style="stop-color:#005385"></stop>
			<stop offset="1" style="stop-color:#1E2D4E"></stop>
		</radialGradient>
		
			<rect x="35.2" y="8.9" style="clip-path:url(#SVGID_00000132793778829902149250000012666870778812789910_);fill:url(#SVGID_00000080928494922719755200000015202726714667351719_);" width="4.7" height="5.8"></rect>
	</g>
	<g>
		<defs>
			<path id="SVGID_00000138534072537879722480000009423784294765582781_" d="M37.1,7c-0.6,1-1.1,1.6-1.6,2.2     c-0.1,0.1-0.2,0.3-0.4,0.4l0.1,2.2c0.8-0.5,1.6-1.4,2.3-2.4c0.7-1,1.1-1.8,1.3-2.2c-0.1-0.5-0.3-1-0.5-1.7     c-0.1-0.2-0.1-0.4-0.2-0.6C37.9,5.4,37.5,6.3,37.1,7"></path>
		</defs>
		<clipPath id="SVGID_00000027571190810029759180000014652063890999718815_">
			<use xlink:href="#SVGID_00000138534072537879722480000009423784294765582781_" style="overflow:visible;"></use>
		</clipPath>
		
			<radialGradient id="SVGID_00000164498751529795399890000013089096208397098882_" cx="-355.0746" cy="455.6615" r="0.159" gradientTransform="matrix(21.7113 0 0 -39.9093 7746.1357 18193.5723)" gradientUnits="userSpaceOnUse">
			<stop offset="0" style="stop-color:#005385"></stop>
			<stop offset="1" style="stop-color:#1E2D4E"></stop>
		</radialGradient>
		
			<rect x="35.1" y="5" style="clip-path:url(#SVGID_00000027571190810029759180000014652063890999718815_);fill:url(#SVGID_00000164498751529795399890000013089096208397098882_);" width="3.8" height="6.9"></rect>
	</g>
	<g>
		<defs>
			<path id="SVGID_00000024720692064788152650000008249201643303231926_" d="M37,17.1c-1,0.3-2,0.7-2.8,0.9c-0.3,0.6-0.6,1.1-1,1.6     c0.9-0.2,1.6-0.4,2.9-0.6c1.7-0.3,2-0.3,3.6-0.9c1.2-0.4,2.4-1.5,2.9-2c-0.4-0.5-0.8-0.9-1-1.2C40.7,15.4,38.5,16.6,37,17.1"></path>
		</defs>
		<clipPath id="SVGID_00000180361366772870868160000003922465471337703347_">
			<use xlink:href="#SVGID_00000024720692064788152650000008249201643303231926_" style="overflow:visible;"></use>
		</clipPath>
		
			<radialGradient id="SVGID_00000065758859685445568300000013885235516876650390_" cx="-354.4165" cy="456.077" r="0.159" gradientTransform="matrix(29.6334 0 0 -29.6334 10540.4639 13532.3672)" gradientUnits="userSpaceOnUse">
			<stop offset="0" style="stop-color:#005385"></stop>
			<stop offset="1" style="stop-color:#1E2D4E"></stop>
		</radialGradient>
		
			<rect x="33.2" y="14.9" style="clip-path:url(#SVGID_00000180361366772870868160000003922465471337703347_);fill:url(#SVGID_00000065758859685445568300000013885235516876650390_);" width="9.4" height="4.7"></rect>
	</g>
	<g>
		<defs>
			<path id="SVGID_00000109724002094965657520000016390232901465985412_" d="M44.2,23.6c-0.9,0.4-2.1,0.8-4.5,0.9     c-2.4,0.2-4.9-0.4-6.2-0.5c-1.1-0.1-3.4,0.1-4.8,0.3c-0.3,0.5-0.6,1-0.9,1.6c0.8-0.1,1.7-0.2,2.7-0.3h0c0,0,0.1,0,0.2,0     c0.8-0.1,1.7-0.1,2.5,0h0c1.1,0.1,2.2,0.3,2.9,0.4c1.3,0.2,1.9,0.2,3.2,0.2c1.3,0,2.8-0.3,4-0.6l-0.1,0c0.8-0.2,2.1-1,2.9-1.4     c0-0.6-0.1-1.2-0.2-1.8C45.6,22.9,44.8,23.4,44.2,23.6"></path>
		</defs>
		<clipPath id="SVGID_00000030469151423769236430000001264057788233703337_">
			<use xlink:href="#SVGID_00000109724002094965657520000016390232901465985412_" style="overflow:visible;"></use>
		</clipPath>
		
			<radialGradient id="SVGID_00000160184637139522369150000006851338385002897552_" cx="-353.1559" cy="458.1571" r="0.159" gradientTransform="matrix(57.8915 0 0 -57.8915 20481.7402 26547.8184)" gradientUnits="userSpaceOnUse">
			<stop offset="0" style="stop-color:#005385"></stop>
			<stop offset="1" style="stop-color:#1E2D4E"></stop>
		</radialGradient>
		
			<rect x="27.8" y="22.5" style="clip-path:url(#SVGID_00000030469151423769236430000001264057788233703337_);fill:url(#SVGID_00000160184637139522369150000006851338385002897552_);" width="18.4" height="3.8"></rect>
	</g>
	<g>
		<defs>
			<path id="SVGID_00000101814493772056060540000017240710553562770568_" d="M42.1,18.1c-0.9,0.6-2.5,1.3-4.1,1.5     c-1.6,0.3-2.8,0.3-3.8,0.4c-0.5,0.1-0.9,0.1-1.4,0.2c-0.6,0.7-1.1,1.2-1.5,1.6c0.4-0.1,0.8-0.1,1.2-0.2c1.3-0.1,2.2-0.1,3.9-0.1     c1.7,0,2.8-0.2,4.5-0.9c1.3-0.5,2.7-1.8,3.4-2.3c-0.3-0.4-0.6-0.8-0.9-1.2C43.1,17.4,42.6,17.7,42.1,18.1"></path>
		</defs>
		<clipPath id="SVGID_00000067949127830690210580000013046591165221673869_">
			<use xlink:href="#SVGID_00000101814493772056060540000017240710553562770568_" style="overflow:visible;"></use>
		</clipPath>
		
			<radialGradient id="SVGID_00000174584048565879190580000007507884052084934285_" cx="-353.7239" cy="457.1695" r="0.159" gradientTransform="matrix(41.0697 0 0 -41.0697 14565.082 18795.2363)" gradientUnits="userSpaceOnUse">
			<stop offset="0" style="stop-color:#005385"></stop>
			<stop offset="1" style="stop-color:#1E2D4E"></stop>
		</radialGradient>
		
			<rect x="31.2" y="17.1" style="clip-path:url(#SVGID_00000067949127830690210580000013046591165221673869_);fill:url(#SVGID_00000174584048565879190580000007507884052084934285_);" width="13.1" height="4.6"></rect>
	</g>
	<g>
		<defs>
			<path id="SVGID_00000180343491565999684270000018417359707430861195_" d="M42.5,21.1c-1.4,0.7-3.8,1.1-5.4,1.1     c-1.5,0-3.1-0.1-4.5-0.1c-0.6,0-1.5,0.1-2.2,0.2c-0.3,0.3-0.9,0.8-1.4,1.5c0.4-0.1,1-0.2,1.5-0.2c1.7-0.2,3.3,0,5.2,0.2     c2,0.2,2.5,0.2,4,0c1.5-0.2,2.6-0.8,3.7-1.5c0.7-0.4,1.5-1.1,2-1.5c-0.2-0.5-0.4-1-0.6-1.4C44.5,19.8,43.5,20.6,42.5,21.1"></path>
		</defs>
		<clipPath id="SVGID_00000108283640386463968990000005150979997987636368_">
			<use xlink:href="#SVGID_00000180343491565999684270000018417359707430861195_" style="overflow:visible;"></use>
		</clipPath>
		
			<radialGradient id="SVGID_00000052081084773382629770000011834336407765316741_" cx="-353.3257" cy="457.7777" r="0.159" gradientTransform="matrix(51.768 0 0 -51.768 18328.2988 23719.9102)" gradientUnits="userSpaceOnUse">
			<stop offset="0" style="stop-color:#005385"></stop>
			<stop offset="1" style="stop-color:#1E2D4E"></stop>
		</radialGradient>
		
			<rect x="29.1" y="19.4" style="clip-path:url(#SVGID_00000108283640386463968990000005150979997987636368_);fill:url(#SVGID_00000052081084773382629770000011834336407765316741_);" width="16.5" height="4.7"></rect>
	</g>
	<path class="st0" d="M58.2,65.9h0.5V63c0-0.2,0-0.5,0-0.5s0.2,0.3,0.3,0.5l1.3,1.7h0.1l1.3-1.7c0.1-0.2,0.3-0.5,0.3-0.5   s0,0.3,0,0.5v2.9h0.5v-4.5h-0.1l-2,2.6l-2.1-2.6h-0.1V65.9z M53.6,64.8l0.8-2c0.1-0.2,0.2-0.5,0.2-0.5s0.1,0.3,0.2,0.5l0.8,2H53.6z    M52.7,65.9h0.5l0.3-0.7h2.2l0.3,0.7h0.5l-1.9-4.5h-0.1L52.7,65.9z M50.8,66L50.8,66l0.1-4.5h-0.4v3c0,0.2,0,0.5,0,0.5   s-0.2-0.3-0.3-0.4l-2.6-3.1h-0.1v4.5h0.4v-3c0-0.2,0-0.5,0-0.5s0.2,0.3,0.3,0.4L50.8,66z M43.9,65.9h0.5v-4h1.4v-0.4h-3.2v0.4h1.4   V65.9z M38.2,65.9H41v-0.4h-2.3v-1.1h2V64h-2v-2.1h2.2v-0.4h-2.7V65.9z M35.6,65.9h0.5v-4.4h-0.5V65.9z M31.9,66L31.9,66l1.9-4.5   h-0.5l-1.2,3c-0.1,0.2-0.2,0.6-0.2,0.6s-0.1-0.4-0.2-0.6l-1.2-3h-0.5L31.9,66z M23.5,65.9h2.8v-0.4H24v-1.1h2V64h-2v-2.1h2.2v-0.4   h-2.7V65.9z M21.3,66L21.3,66l0.1-4.5H21v3c0,0.2,0,0.5,0,0.5s-0.2-0.3-0.3-0.4L18,61.5H18v4.5h0.4v-3c0-0.2,0-0.5,0-0.5   s0.2,0.3,0.3,0.4L21.3,66z M13.1,65.9h0.5v-4.4h-0.5V65.9z M9.4,66c0.9,0,1.6-0.5,1.6-1.6v-2.9h-0.5v2.9c0,0.8-0.4,1.2-1.1,1.2   c-0.7,0-1.1-0.4-1.1-1.2v-2.9H7.8v2.9C7.8,65.5,8.5,66,9.4,66 M1.5,65.9H2V63c0-0.2,0-0.5,0-0.5s0.2,0.3,0.3,0.5l1.3,1.7h0.1L5,63   c0.1-0.2,0.3-0.5,0.3-0.5s0,0.3,0,0.5v2.9h0.5v-4.5H5.7l-2,2.6l-2.1-2.6H1.5V65.9z"></path>
</g>
</svg>
