<?xml version="1.0" encoding="UTF-8"?>
<!-- Generator: Adobe Illustrator 27.8.1, SVG Export Plug-In . SVG Version: 6.00 Build 0)  -->
<svg xmlns="http://www.w3.org/2000/svg" xmlns:xlink="http://www.w3.org/1999/xlink" version="1.1" id="Layer_1" x="0px" y="0px" viewBox="0 0 64.5 67" style="enable-background:new 0 0 64.5 67;" xml:space="preserve">
<style type="text/css">
	.st0{fill:#FFFFFF;}
	.st1{clip-path:url(#SVGID_00000026126819174501492600000009418504646671617713_);fill:#FFFFFF;}
	.st2{clip-path:url(#SVGID_00000148620472177469688310000001421716152848132229_);}
	.st3{clip-path:url(#SVGID_00000086658839876812291120000003676825496657042582_);fill:#FFFFFF;}
	.st4{clip-path:url(#SVGID_00000024719347867620959790000012708442162511298998_);fill:#FFFFFF;}
	.st5{clip-path:url(#SVGID_00000161592822911322873600000003960445130205445775_);fill:#FFFFFF;}
	.st6{clip-path:url(#SVGID_00000083780267735453824410000000268321636358413965_);fill:#FFFFFF;}
	.st7{clip-path:url(#SVGID_00000183927672883582506400000005296075676121734842_);fill:#FFFFFF;}
	.st8{clip-path:url(#SVGID_00000109746501311065377840000001631084531657058469_);fill:#FFFFFF;}
	.st9{clip-path:url(#SVGID_00000061458647684434691130000010289970671823769279_);fill:#FFFFFF;}
	.st10{clip-path:url(#SVGID_00000163772299831859953610000011902718096245838263_);fill:#FFFFFF;}
	.st11{clip-path:url(#SVGID_00000058556703203192502640000013746884144733319599_);fill:#FFFFFF;}
	.st12{clip-path:url(#SVGID_00000148636711484616479310000008133930630496556684_);fill:#FFFFFF;}
	.st13{clip-path:url(#SVGID_00000089565677232792718370000006397927714090918566_);fill:#FFFFFF;}
	.st14{clip-path:url(#SVGID_00000182490312626818195340000003177445574848330917_);fill:#FFFFFF;}
	.st15{clip-path:url(#SVGID_00000090264174105309411880000007591907400165447057_);}
	.st16{clip-path:url(#SVGID_00000100379020681243451630000003865761851462441113_);fill:#FFFFFF;}
	.st17{clip-path:url(#SVGID_00000037658759503222379960000002982689020473153680_);fill:#FFFFFF;}
	.st18{clip-path:url(#SVGID_00000071542313261055827170000009084884841217212073_);fill:#FFFFFF;}
	.st19{clip-path:url(#SVGID_00000000913757614257958370000000903345557815335091_);fill:#FFFFFF;}
	.st20{clip-path:url(#SVGID_00000161597826545342967440000010323970905490680705_);fill:#FFFFFF;}
	.st21{clip-path:url(#SVGID_00000131363248220579114160000002770574408236858780_);fill:#FFFFFF;}
	.st22{clip-path:url(#SVGID_00000139279576975187525090000014864382390644776846_);fill:#FFFFFF;}
	.st23{clip-path:url(#SVGID_00000074426900579529872840000010766990147107292288_);fill:#FFFFFF;}
	.st24{clip-path:url(#SVGID_00000181067631792137282310000012214475397966369455_);fill:#FFFFFF;}
	.st25{clip-path:url(#SVGID_00000075163767352090824650000013607627317540070276_);fill:#FFFFFF;}
	.st26{clip-path:url(#SVGID_00000119109991474988943660000005927263687469265813_);fill:#FFFFFF;}
	.st27{clip-path:url(#SVGID_00000131362707490813960620000011974310058307471279_);fill:#FFFFFF;}
	.st28{clip-path:url(#SVGID_00000039818977428668392110000011268142493615909269_);fill:#FFFFFF;}
	.st29{clip-path:url(#SVGID_00000078742786489361409910000007936501269213932211_);fill:#FFFFFF;}
</style>
<g>
	<path class="st0" d="M5.3,52.3C5.3,52.3,5.3,52.3,5.3,52.3c0.5-1.3,1-2.6,1.6-3.8C7.4,49.7,8,51,8.5,52.3c0,0,0,0,0,0H5.3z    M10.1,51.5c-0.7-1.8-1.5-3.5-2.3-5.3c-0.2-0.4-0.4-0.8-0.6-1.3l-0.3-0.6L6.6,45c-0.2,0.4-0.4,0.8-0.6,1.3   c-0.9,1.7-1.6,3.5-2.3,5.3c-0.6,1.6-1.2,3.4-1.7,5.1L1.8,57h1.9l0.1-0.2c0.3-0.9,0.6-1.9,0.9-2.9h4.4c0.3,1,0.7,1.9,0.9,2.9   l0.1,0.2H12l-0.1-0.4C11.3,54.9,10.8,53.2,10.1,51.5"></path>
	<path class="st0" d="M17.3,50.3l-0.9-0.4c-1.2-0.6-1.5-0.9-1.5-1.7c0-0.8,0.5-1.2,1.4-1.2c0.8,0,1.3,0.3,1.7,1l0.2,0.3l1.5-0.9   l-0.2-0.3c-0.7-1.2-1.8-1.8-3.2-1.8c-1.9,0-3.2,1.2-3.2,2.9c0,1.7,1,2.6,2.6,3.3l0.9,0.4c1.4,0.6,1.9,1.1,1.9,2   c0,1.1-1,1.5-1.9,1.5c-1.5,0-2.1-0.8-2.5-1.5l-0.2-0.3l-1.5,0.8l0.1,0.3c0.5,1.1,1.7,2.4,4.1,2.4c2.2,0,3.7-1.3,3.7-3.2   C20.3,51.9,18.9,51,17.3,50.3"></path>
	<polygon class="st0" points="20.7,47.1 24.1,47.1 24.1,57 25.9,57 25.9,47.1 29.2,47.1 29.2,45.4 20.7,45.4  "></polygon>
	<rect x="49.6" y="45.4" class="st0" width="1.8" height="11.6"></rect>
	<path class="st0" d="M56,52.3C56.1,52.3,56.1,52.3,56,52.3c0.5-1.3,1-2.6,1.6-3.8c0.6,1.2,1.1,2.5,1.6,3.8c0,0,0,0,0,0H56z    M62.6,56.6c-0.5-1.7-1.1-3.4-1.7-5.1c-0.7-1.8-1.5-3.5-2.3-5.3c-0.2-0.4-0.4-0.8-0.6-1.3l-0.3-0.6L57.4,45   c-0.2,0.4-0.4,0.8-0.6,1.3c-0.9,1.7-1.6,3.5-2.3,5.3c-0.6,1.6-1.2,3.4-1.7,5.1L52.6,57h1.9l0.1-0.2c0.3-0.9,0.6-1.9,0.9-2.9h4.4   c0.3,1,0.7,1.9,0.9,2.9l0.1,0.2h1.9L62.6,56.6z"></path>
	<path class="st0" d="M41.8,52.5v-5.3h0.9c2,0,3.1,0.9,3.1,2.7c0,1.8-1,2.7-3.1,2.7H41.8z M47.6,49.8c0-2.7-1.9-4.4-4.9-4.4H40V57   h1.8v-2.9h1c0.3,0,0.7,0,1-0.1l2.1,3H48l-2.5-3.6C46.9,52.8,47.6,51.5,47.6,49.8"></path>
	<polygon class="st0" points="32.5,53.3 37.4,53.3 37.4,51.6 32.5,51.6 32.5,47.1 38,47.1 38,45.4 30.7,45.4 30.7,57 38.2,57    38.2,55.3 32.5,55.3  "></polygon>
	<g>
		<defs>
			<path id="SVGID_1_" d="M32.2,6.2c0,0.6,0.5,1,1,1c0.6,0,1-0.5,1-1c0-0.6-0.5-1-1-1C32.7,5.2,32.2,5.7,32.2,6.2 M27.2,2.1     c0.5,0.8,1.3,2.4,1.9,3.7c0.6,1.5,1,2.4,1.7,3.3c0.6,0.8,1.5,1,2.4,1c0.3,0,0.9-0.1,1.4-0.4c0-0.6-0.1-1.4-0.1-2.2     C34.1,7.8,33.8,8,33.7,8c-0.4,0.1-0.7,0.2-1.2,0c-0.5-0.2-0.9-1-1-1.3c-0.2-0.5-0.9-2.2-1.3-3C29.7,3,29.2,2,28.9,1.3     C28.3,1.6,27.7,1.8,27.2,2.1"></path>
		</defs>
		<use xlink:href="#SVGID_1_" style="overflow:visible;fill:#FFFFFF;"></use>
		<clipPath id="SVGID_00000016771562813848088050000009440758489864932243_">
			<use xlink:href="#SVGID_1_" style="overflow:visible;"></use>
		</clipPath>
		
			<rect x="27.2" y="1.3" style="clip-path:url(#SVGID_00000016771562813848088050000009440758489864932243_);fill:#FFFFFF;" width="7.3" height="8.9"></rect>
	</g>
	<g>
		<defs>
			<path id="SVGID_00000006689796570495271660000003739045615366319502_" d="M32.2,6.2c0,0.6,0.5,1,1,1c0.6,0,1-0.5,1-1     c0-0.6-0.5-1-1-1C32.7,5.2,32.2,5.7,32.2,6.2 M27.2,2.1c0.5,0.8,1.3,2.4,1.9,3.7c0.6,1.5,1,2.4,1.7,3.3c0.6,0.8,1.5,1,2.4,1     c0.3,0,0.9-0.1,1.4-0.4c0-0.6-0.1-1.4-0.1-2.2C34.1,7.8,33.8,8,33.7,8c-0.4,0.1-0.7,0.2-1.2,0c-0.5-0.2-0.9-1-1-1.3     c-0.2-0.5-0.9-2.2-1.3-3C29.7,3,29.2,2,28.9,1.3C28.3,1.6,27.7,1.8,27.2,2.1"></path>
		</defs>
		<use xlink:href="#SVGID_00000006689796570495271660000003739045615366319502_" style="overflow:visible;fill:#FFFFFF;"></use>
		<clipPath id="SVGID_00000005954290817201573350000000163311340895041177_">
			<use xlink:href="#SVGID_00000006689796570495271660000003739045615366319502_" style="overflow:visible;"></use>
		</clipPath>
		<g style="clip-path:url(#SVGID_00000005954290817201573350000000163311340895041177_);">
			<defs>
				<rect id="SVGID_00000158012474497197208160000011267323690373742484_" x="26" y="-12.7" width="7.3" height="8.7"></rect>
			</defs>
			<use xlink:href="#SVGID_00000158012474497197208160000011267323690373742484_" style="overflow:visible;fill:#FFFFFF;"></use>
			<clipPath id="SVGID_00000130639001474207077540000007211554306043932606_">
				<use xlink:href="#SVGID_00000158012474497197208160000011267323690373742484_" style="overflow:visible;"></use>
			</clipPath>
			
				<rect x="26" y="-12.7" style="clip-path:url(#SVGID_00000130639001474207077540000007211554306043932606_);fill:#FFFFFF;" width="7.3" height="8.7"></rect>
		</g>
	</g>
	<g>
		<defs>
			<path id="SVGID_00000032610089147016561120000008821176204249965708_" d="M20.7,27.5c0.6,0.1,1.4,0.3,1.8,0.4     c0.7,0.1,1.6,0.2,2.1,0.2c0.1,0,0.3,0,0.5,0c0-0.1,0-0.3,0.1-0.4c0.1-0.3,0.2-0.7,0.4-1l-0.2,0c-0.9,0-2.1-0.2-2.9-0.5     c-0.5-0.1-0.9-0.3-1.3-0.5h0c-0.2-0.1-0.4-0.2-0.6-0.2c-0.2-0.1-0.8-0.3-1.2-0.4C19.7,25.9,20.2,26.7,20.7,27.5"></path>
		</defs>
		<use xlink:href="#SVGID_00000032610089147016561120000008821176204249965708_" style="overflow:visible;fill:#FFFFFF;"></use>
		<clipPath id="SVGID_00000121237632740912226070000000324339128993569719_">
			<use xlink:href="#SVGID_00000032610089147016561120000008821176204249965708_" style="overflow:visible;"></use>
		</clipPath>
		
			<rect x="19.3" y="25" style="clip-path:url(#SVGID_00000121237632740912226070000000324339128993569719_);fill:#FFFFFF;" width="6.2" height="3"></rect>
	</g>
	<g>
		<defs>
			<path id="SVGID_00000116953481462624455410000000057400404363388063_" d="M24.4,31.5c0.3,0.2,0.6,0.4,0.9,0.7l0.1-0.1     c-0.1-0.4-0.2-0.8-0.2-1.2L24.4,31.5z"></path>
		</defs>
		<use xlink:href="#SVGID_00000116953481462624455410000000057400404363388063_" style="overflow:visible;fill:#FFFFFF;"></use>
		<clipPath id="SVGID_00000160898843888897818320000013853834370410891427_">
			<use xlink:href="#SVGID_00000116953481462624455410000000057400404363388063_" style="overflow:visible;"></use>
		</clipPath>
		
			<rect x="24.4" y="30.9" style="clip-path:url(#SVGID_00000160898843888897818320000013853834370410891427_);fill:#FFFFFF;" width="1" height="1.3"></rect>
	</g>
	<g>
		<defs>
			<path id="SVGID_00000155835346167652073600000005065563377072999858_" d="M24.4,28.7c-0.4,0.1-0.8,0.2-1.2,0.4     c-0.3,0.1-0.8,0.2-1.2,0.2c0.4,0.5,0.9,0.9,1.3,1.4c0.4-0.2,1-0.4,1.4-0.6c0.1,0,0.2-0.1,0.3-0.1c0-0.4,0-0.9,0-1.3L24.4,28.7z"></path>
		</defs>
		<use xlink:href="#SVGID_00000155835346167652073600000005065563377072999858_" style="overflow:visible;fill:#FFFFFF;"></use>
		<clipPath id="SVGID_00000092453008269250442400000014328337279856514718_">
			<use xlink:href="#SVGID_00000155835346167652073600000005065563377072999858_" style="overflow:visible;"></use>
		</clipPath>
		
			<rect x="22" y="28.6" style="clip-path:url(#SVGID_00000092453008269250442400000014328337279856514718_);fill:#FFFFFF;" width="3" height="2.1"></rect>
	</g>
	<g>
		<defs>
			<path id="SVGID_00000088831368015705893370000002315408748302406024_" d="M19,11.3c0.5,0.6,1.2,1.5,1.7,2.3c1,1.5,1.4,2.3,2,3.1     c0.6,0.8,1.9,1.8,2.9,2.4c1.1,0.6,2.6,0.9,3.5,1c0.6,0.1,1.6,0,2.4-0.1c0.4-0.5,1-1,1.5-1.8c-0.4,0-0.9,0.1-1.3,0.1     c-3.9,0.1-4.9-0.7-5.7-1.2c-0.8-0.4-2-1.7-2.7-2.5c-0.6-0.8-1.6-2.1-1.9-2.7c-0.3-0.4-1.2-1.5-1.8-2.2     C19.4,10.3,19.2,10.8,19,11.3"></path>
		</defs>
		<use xlink:href="#SVGID_00000088831368015705893370000002315408748302406024_" style="overflow:visible;fill:#FFFFFF;"></use>
		<clipPath id="SVGID_00000072973857451557477390000005680910885816538761_">
			<use xlink:href="#SVGID_00000088831368015705893370000002315408748302406024_" style="overflow:visible;"></use>
		</clipPath>
		
			<rect x="19" y="9.7" style="clip-path:url(#SVGID_00000072973857451557477390000005680910885816538761_);fill:#FFFFFF;" width="14.1" height="10.4"></rect>
	</g>
	<g>
		<defs>
			<path id="SVGID_00000162335211267616295640000015286333803857227681_" d="M18,14.9c0.6,0.6,1.4,1.5,2.1,2.3     c1,1.2,2.1,2.6,3.3,3.4c1.1,0.8,2.9,1.6,4.6,1.5c0.2,0,0.4,0,0.5,0c0.2,0,0.6,0,0.8,0c0.7-0.6,1.3-1.2,1.7-1.5     c-0.6,0.1-1.2,0.1-1.7,0.1c-2.3-0.2-4-1-5.3-1.9c-1.3-0.9-3.3-3.1-4-3.9c-0.4-0.5-1.2-1.3-1.8-1.8C18.2,13.6,18.1,14.2,18,14.9"></path>
		</defs>
		<use xlink:href="#SVGID_00000162335211267616295640000015286333803857227681_" style="overflow:visible;fill:#FFFFFF;"></use>
		<clipPath id="SVGID_00000081616342345110920910000005960378528742974851_">
			<use xlink:href="#SVGID_00000162335211267616295640000015286333803857227681_" style="overflow:visible;"></use>
		</clipPath>
		
			<rect x="18" y="13" style="clip-path:url(#SVGID_00000081616342345110920910000005960378528742974851_);fill:#FFFFFF;" width="13.1" height="9.1"></rect>
	</g>
	<g>
		<defs>
			<path id="SVGID_00000101807002006693642610000014075371426685594535_" d="M17.7,17.8c0,0.4,0,0.8,0,1.2c0.7,0.7,1.8,1.8,2.5,2.4     c1,0.9,2,1.6,3.2,2.2c1.2,0.6,2.6,0.6,3.8,0.6c0.5-0.5,1-1,1.5-1.5l-0.1,0c-0.8,0.1-2.1,0-3.8-0.4c-1.7-0.4-3.5-2.1-4.6-2.9     c-0.7-0.5-1.9-1.9-2.6-2.6C17.8,17,17.7,17.4,17.7,17.8"></path>
		</defs>
		<use xlink:href="#SVGID_00000101807002006693642610000014075371426685594535_" style="overflow:visible;fill:#FFFFFF;"></use>
		<clipPath id="SVGID_00000151513318447337867950000003807972891941078155_">
			<use xlink:href="#SVGID_00000101807002006693642610000014075371426685594535_" style="overflow:visible;"></use>
		</clipPath>
		
			<rect x="17.7" y="16.7" style="clip-path:url(#SVGID_00000151513318447337867950000003807972891941078155_);fill:#FFFFFF;" width="11.1" height="7.5"></rect>
	</g>
	<g>
		<defs>
			<path id="SVGID_00000026846325822269470050000014960786346609391292_" d="M20.5,8.3c0.3,0.4,0.6,0.9,1,1.5     c0.8,1.3,1.5,2.6,2.5,3.9c0.7,0.9,1.9,2.2,3.4,3c1.4,0.9,2.9,1,4.4,1c0.5,0,1.2,0,1.7-0.1c0.3-0.6,0.6-1.2,0.8-1.9     c0-0.1,0-0.1,0.1-0.2c-0.3,0.1-0.7,0.2-0.9,0.2c-1.5,0.4-4,0.1-5.8-1.1c-1.8-1.2-2.8-2.8-4-4.7c-0.7-1.3-1.6-2.5-2.1-3.1     C21.2,7.3,20.8,7.8,20.5,8.3"></path>
		</defs>
		<use xlink:href="#SVGID_00000026846325822269470050000014960786346609391292_" style="overflow:visible;fill:#FFFFFF;"></use>
		<clipPath id="SVGID_00000067216541829406915640000005753074839585940114_">
			<use xlink:href="#SVGID_00000026846325822269470050000014960786346609391292_" style="overflow:visible;"></use>
		</clipPath>
		
			<rect x="20.5" y="6.8" style="clip-path:url(#SVGID_00000067216541829406915640000005753074839585940114_);fill:#FFFFFF;" width="13.8" height="11"></rect>
	</g>
	<g>
		<defs>
			<path id="SVGID_00000004511808320671719010000002607323037854187910_" d="M22.3,5.9c0.5,0.7,1.5,2.1,2.1,3.2     c0.9,1.5,1.4,2.8,2.6,3.9c1.2,1.2,2.7,2.1,4.2,2.2c1,0.1,2.2,0,3.2-0.3c0.2-0.8,0.2-1.4,0.2-2.1c-0.3,0.1-0.6,0.2-0.7,0.3     c-1.1,0.4-2,0.2-3.1,0.1c-1.1-0.2-2.6-1.2-3.4-2.3c-0.4-0.5-0.9-1.4-1.4-2.4c-0.5-1-0.8-1.6-1.3-2.4C24.5,5.7,24,5,23.7,4.6     C23.2,5,22.7,5.4,22.3,5.9"></path>
		</defs>
		<use xlink:href="#SVGID_00000004511808320671719010000002607323037854187910_" style="overflow:visible;fill:#FFFFFF;"></use>
		<clipPath id="SVGID_00000101816649310892383430000010095659806160880808_">
			<use xlink:href="#SVGID_00000004511808320671719010000002607323037854187910_" style="overflow:visible;"></use>
		</clipPath>
		
			<rect x="22.3" y="4.6" style="clip-path:url(#SVGID_00000101816649310892383430000010095659806160880808_);fill:#FFFFFF;" width="12.4" height="10.8"></rect>
	</g>
	<g>
		<defs>
			<path id="SVGID_00000018235477714461382280000009636292649939697326_" d="M18.7,23.4c0.8,0.5,2.2,1.3,2.9,1.6     c0.5,0.2,1,0.5,1.6,0.6c0.7,0.2,1.7,0.5,2.6,0.6c0.3-0.6,0.8-1.2,1.3-1.7c-1,0-2,0-2.7-0.2c-1.1-0.3-3.3-1.5-4.2-2.1     c-0.5-0.3-1.4-1-2.1-1.6C18.1,21.6,18.4,22.5,18.7,23.4"></path>
		</defs>
		<use xlink:href="#SVGID_00000018235477714461382280000009636292649939697326_" style="overflow:visible;fill:#FFFFFF;"></use>
		<clipPath id="SVGID_00000042706015663070418700000003238263472632246200_">
			<use xlink:href="#SVGID_00000018235477714461382280000009636292649939697326_" style="overflow:visible;"></use>
		</clipPath>
		
			<rect x="18" y="20.7" style="clip-path:url(#SVGID_00000042706015663070418700000003238263472632246200_);fill:#FFFFFF;" width="9" height="5.6"></rect>
	</g>
	<g>
		<defs>
			<path id="SVGID_00000116940749940933565120000000617162288357331858_" d="M24.7,3.7c0.3,0.5,1,1.5,1.6,2.8c0.8,1.7,1.3,2.9,2,4     c0.9,1.3,2.1,2.3,4.5,2.2c0.6,0,1.3-0.2,1.9-0.4c0-0.6-0.1-1.3-0.1-2c-0.3,0.2-0.7,0.3-1,0.4c-0.6,0.1-1.1,0.1-2.2-0.3     c-1-0.4-1.8-1.3-2.4-2.4c-0.5-1.1-1-2-1.6-3.2C27,4,26.4,3.2,26.1,2.8C25.6,3.1,25.2,3.4,24.7,3.7"></path>
		</defs>
		<use xlink:href="#SVGID_00000116940749940933565120000000617162288357331858_" style="overflow:visible;fill:#FFFFFF;"></use>
		<clipPath id="SVGID_00000047049305047362795080000014045976241222341309_">
			<use xlink:href="#SVGID_00000116940749940933565120000000617162288357331858_" style="overflow:visible;"></use>
		</clipPath>
		
			<rect x="24.7" y="2.8" style="clip-path:url(#SVGID_00000047049305047362795080000014045976241222341309_);fill:#FFFFFF;" width="10" height="10"></rect>
	</g>
	<g>
		<defs>
			<path id="SVGID_00000117647307311051789750000011736381761913228678_" d="M34.9,7.1L34.9,7.1L34.9,7.1     C34.9,7.1,34.9,7.1,34.9,7.1 M34.9,7.1C34.9,7.1,34.9,7.1,34.9,7.1L34.9,7.1z"></path>
		</defs>
		<use xlink:href="#SVGID_00000117647307311051789750000011736381761913228678_" style="overflow:visible;fill:#FFFFFF;"></use>
		<clipPath id="SVGID_00000016795755448288774520000014128151475090169496_">
			<use xlink:href="#SVGID_00000117647307311051789750000011736381761913228678_" style="overflow:visible;"></use>
		</clipPath>
		
			<rect x="34.9" y="7.1" style="clip-path:url(#SVGID_00000016795755448288774520000014128151475090169496_);fill:#FFFFFF;" width="0" height="0"></rect>
	</g>
	<g>
		<defs>
			<path id="SVGID_00000067194583913071557780000014981491570685829773_" d="M34.9,7.1L34.9,7.1L34.9,7.1     C34.9,7.1,34.9,7.1,34.9,7.1 M34.9,7.1C34.9,7.1,34.9,7.1,34.9,7.1L34.9,7.1z"></path>
		</defs>
		<use xlink:href="#SVGID_00000067194583913071557780000014981491570685829773_" style="overflow:visible;fill:#FFFFFF;"></use>
		<clipPath id="SVGID_00000020374553849460688360000008202635288082028697_">
			<use xlink:href="#SVGID_00000067194583913071557780000014981491570685829773_" style="overflow:visible;"></use>
		</clipPath>
		<g style="clip-path:url(#SVGID_00000020374553849460688360000008202635288082028697_);">
			<defs>
				<rect id="SVGID_00000026127293775233875840000017684253641314369153_" x="34.9" y="7.1" width="0" height="0"></rect>
			</defs>
			<use xlink:href="#SVGID_00000026127293775233875840000017684253641314369153_" style="overflow:visible;fill:#FFFFFF;"></use>
			<clipPath id="SVGID_00000042001558232443599480000009839042870466331293_">
				<use xlink:href="#SVGID_00000026127293775233875840000017684253641314369153_" style="overflow:visible;"></use>
			</clipPath>
			
				<rect x="34.9" y="7.1" style="clip-path:url(#SVGID_00000042001558232443599480000009839042870466331293_);fill:#FFFFFF;" width="0" height="0"></rect>
		</g>
	</g>
	<g>
		<defs>
			<path id="SVGID_00000036950830240854530690000006071319755099138494_" d="M34.9,7.1L34.9,7.1l0.2,2.1c1.2-2.7,1.1-4.6,1.1-4.6     l-1.5-1.2C34.7,3.3,34.9,6.8,34.9,7.1"></path>
		</defs>
		<use xlink:href="#SVGID_00000036950830240854530690000006071319755099138494_" style="overflow:visible;fill:#FFFFFF;"></use>
		<clipPath id="SVGID_00000167390388926034572850000005120364813345322116_">
			<use xlink:href="#SVGID_00000036950830240854530690000006071319755099138494_" style="overflow:visible;"></use>
		</clipPath>
		
			<rect x="34.7" y="3.3" style="clip-path:url(#SVGID_00000167390388926034572850000005120364813345322116_);fill:#FFFFFF;" width="1.6" height="5.8"></rect>
	</g>
	<g>
		<defs>
			<path id="SVGID_00000093885617363427307170000015545257235686609045_" d="M30.9,37.4c0,0.6,0.5,1,1,1c0.6,0,1-0.5,1-1     c0-0.6-0.5-1-1-1C31.4,36.4,30.9,36.8,30.9,37.4 M28.9,35.4c-0.1,0.1-0.1,0.2-0.1,0.2l0.7,1.1c0,0,0.1-0.1,0.2-0.2     c0.1-0.2,0.3-0.3,0.4-0.5c0.2-0.2,0.8-0.6,1.8-0.6c0.8,0,1.9,1.3,2.3,1.9c0.5-0.1,0.9-0.2,1.4-0.3c-0.3-0.5-0.8-1.2-1.2-1.6     c-0.6-0.6-1.4-1.3-2.9-1.4c0,0-0.1,0-0.1,0C30.2,33.9,29.2,35,28.9,35.4"></path>
		</defs>
		<use xlink:href="#SVGID_00000093885617363427307170000015545257235686609045_" style="overflow:visible;fill:#FFFFFF;"></use>
		<clipPath id="SVGID_00000003096069855149805130000017529517943819379089_">
			<use xlink:href="#SVGID_00000093885617363427307170000015545257235686609045_" style="overflow:visible;"></use>
		</clipPath>
		
			<rect x="28.8" y="33.9" style="clip-path:url(#SVGID_00000003096069855149805130000017529517943819379089_);fill:#FFFFFF;" width="6.8" height="4.5"></rect>
	</g>
	<g>
		<defs>
			<path id="SVGID_00000073709933233291861260000017214332527748377005_" d="M27.1,28.3c-0.1,0.4-0.1,0.8-0.1,1.2     c0.6-0.1,1.2-0.1,2.2-0.1c1.3,0,2.4,0.1,2.7,0.2c0.6,0.1,2.1,0.4,3.1,0.6c1,0.3,1.8,0.5,3.1,0.8c1.5,0.3,2.1,0.4,3.5,0.4     c0.6,0,1.8-0.1,2.4-0.1c0.4-0.6,0.8-1.2,1.1-1.8c-0.5,0.1-1.2,0.2-1.6,0.2c-1.4,0.1-2.1,0-3.6-0.2c-1.5-0.1-2.9-0.5-4-0.8     c-1.1-0.3-2.4-0.5-4.3-0.5c-0.3,0-0.7,0-1.1,0C29.2,28.2,27.8,28.3,27.1,28.3"></path>
		</defs>
		<use xlink:href="#SVGID_00000073709933233291861260000017214332527748377005_" style="overflow:visible;fill:#FFFFFF;"></use>
		<clipPath id="SVGID_00000021077025644415765840000004019384685801080969_">
			<use xlink:href="#SVGID_00000073709933233291861260000017214332527748377005_" style="overflow:visible;"></use>
		</clipPath>
		
			<rect x="27" y="28.2" style="clip-path:url(#SVGID_00000021077025644415765840000004019384685801080969_);fill:#FFFFFF;" width="18.1" height="3.2"></rect>
	</g>
	<g>
		<defs>
			<path id="SVGID_00000152234409486791729490000016658768173477524375_" d="M44.2,26.7c-1.2,0.4-3.1,0.4-4.2,0.4     c-1.2,0-4.2-0.6-5.3-0.8c-1-0.2-2.5-0.2-3.5-0.2c-0.9,0-2.9,0.2-3.7,0.3c-0.2,0.4-0.3,0.9-0.4,1.4c0.8-0.1,2-0.1,3.4-0.2     c1.6-0.1,2.1-0.1,3.3,0c1.2,0.1,3.1,0.5,4.1,0.7c1.1,0.2,2.3,0.3,3.2,0.3c0.9,0,2-0.2,3-0.4c0.5-0.1,1.1-0.4,1.5-0.6     c0-0.1,0.1-0.3,0.1-0.4c0.1-0.5,0.2-0.9,0.3-1.4C45.6,26.2,44.9,26.5,44.2,26.7"></path>
		</defs>
		<use xlink:href="#SVGID_00000152234409486791729490000016658768173477524375_" style="overflow:visible;fill:#FFFFFF;"></use>
		<clipPath id="SVGID_00000003085016078939929220000001321752549099406776_">
			<use xlink:href="#SVGID_00000152234409486791729490000016658768173477524375_" style="overflow:visible;"></use>
		</clipPath>
		
			<rect x="27.2" y="26" style="clip-path:url(#SVGID_00000003085016078939929220000001321752549099406776_);fill:#FFFFFF;" width="18.9" height="2.8"></rect>
	</g>
	<g>
		<defs>
			<path id="SVGID_00000155145436197736049510000000207842848052959128_" d="M28.3,30.1c-0.5,0.1-1,0.1-1.3,0.2c0,0.5,0.1,1,0.2,1.4     c0.3-0.1,0.9-0.2,1.5-0.2c0.9-0.1,1.4-0.2,2.4-0.1c0.9,0.1,2.3,0.4,3.2,0.8c0.6,0.3,2,0.9,2.7,1.3c0.7,0.3,1.3,0.4,2,0.5     c0.4,0.1,1.6,0.2,2.3,0.2c0.5-0.4,1-0.9,1.5-1.3c-0.5,0-1.1-0.1-1.6-0.1c-0.7,0-1.9-0.3-3.2-0.7c-1.3-0.3-2.2-0.8-3.3-1.2     c-1.1-0.4-2.5-0.8-3.4-0.8c-0.2,0-0.5,0-0.7,0C29.8,29.9,28.8,30,28.3,30.1"></path>
		</defs>
		<use xlink:href="#SVGID_00000155145436197736049510000000207842848052959128_" style="overflow:visible;fill:#FFFFFF;"></use>
		<clipPath id="SVGID_00000040538585508500704740000003453492219256616096_">
			<use xlink:href="#SVGID_00000155145436197736049510000000207842848052959128_" style="overflow:visible;"></use>
		</clipPath>
		
			<rect x="27" y="29.9" style="clip-path:url(#SVGID_00000040538585508500704740000003453492219256616096_);fill:#FFFFFF;" width="15.7" height="4.1"></rect>
	</g>
	<g>
		<defs>
			<path id="SVGID_00000020367621683881694500000003484905059901652111_" d="M30.1,31.9c-1.1,0-2.1,0.5-2.6,0.8     c0.2,0.5,0.4,0.9,0.6,1.4c0.3-0.2,0.9-0.4,1.1-0.5c0.4-0.1,1.3-0.2,1.8-0.2c0.5,0,1.3,0.1,2.2,0.4c0.8,0.3,1.5,0.7,2,1     c0.4,0.2,1.7,1.1,2.2,1.5c0.5-0.2,1.1-0.5,1.6-0.8c-0.3-0.3-0.7-0.6-0.9-0.7c-0.3-0.1-1.4-0.9-2-1.2c-0.6-0.3-1.5-0.8-2.3-1.1     C33,32.2,31.6,32,30.1,31.9L30.1,31.9z"></path>
		</defs>
		<use xlink:href="#SVGID_00000020367621683881694500000003484905059901652111_" style="overflow:visible;fill:#FFFFFF;"></use>
		<clipPath id="SVGID_00000120528283897324332210000007886973592790056861_">
			<use xlink:href="#SVGID_00000020367621683881694500000003484905059901652111_" style="overflow:visible;"></use>
		</clipPath>
		
			<rect x="27.5" y="31.9" style="clip-path:url(#SVGID_00000120528283897324332210000007886973592790056861_);fill:#FFFFFF;" width="11.4" height="4.4"></rect>
	</g>
	<g>
		<defs>
			<path id="SVGID_00000181788512331842704250000011254162045754727808_" d="M38.1,13.6c-0.8,0.4-1.7,1.2-3,1.7     c-0.1,0.4-0.2,0.8-0.3,1.2c-0.1,0.3-0.2,0.6-0.3,0.9c0.6-0.2,1.4-0.6,2.3-1c1.7-0.7,3.7-2.2,4.1-2.5c-0.2-0.5-0.5-1.1-0.7-1.7     C39.8,12.4,38.9,13.2,38.1,13.6"></path>
		</defs>
		<use xlink:href="#SVGID_00000181788512331842704250000011254162045754727808_" style="overflow:visible;fill:#FFFFFF;"></use>
		<clipPath id="SVGID_00000101103506002081147860000000335630250931660198_">
			<use xlink:href="#SVGID_00000181788512331842704250000011254162045754727808_" style="overflow:visible;"></use>
		</clipPath>
		
			<rect x="34.4" y="12.1" style="clip-path:url(#SVGID_00000101103506002081147860000000335630250931660198_);fill:#FFFFFF;" width="6.5" height="5.3"></rect>
	</g>
	<g>
		<defs>
			<path id="SVGID_00000060021163608456563660000008539124242780417667_" d="M37.5,10.7c-0.6,0.5-1.4,1.2-2.2,1.7     c0,0.6,0,1.4-0.1,2.2c0.2-0.1,0.5-0.3,0.7-0.4c1.8-1.1,3.5-2.9,4-3.5c-0.2-0.8-0.4-1.4-0.5-2C38.9,9.2,38.2,10.1,37.5,10.7"></path>
		</defs>
		<use xlink:href="#SVGID_00000060021163608456563660000008539124242780417667_" style="overflow:visible;fill:#FFFFFF;"></use>
		<clipPath id="SVGID_00000101790821647032035160000009760615998719743629_">
			<use xlink:href="#SVGID_00000060021163608456563660000008539124242780417667_" style="overflow:visible;"></use>
		</clipPath>
		
			<rect x="35.2" y="8.9" style="clip-path:url(#SVGID_00000101790821647032035160000009760615998719743629_);fill:#FFFFFF;" width="4.7" height="5.8"></rect>
	</g>
	<g>
		<defs>
			<path id="SVGID_00000115516288875004070750000003956061518885366409_" d="M37.1,7c-0.6,1-1.1,1.6-1.6,2.2     c-0.1,0.1-0.2,0.3-0.4,0.4l0.1,2.2c0.8-0.5,1.6-1.4,2.3-2.4c0.7-1,1.1-1.8,1.3-2.2c-0.1-0.5-0.3-1-0.5-1.7     c-0.1-0.2-0.1-0.4-0.2-0.6C37.9,5.4,37.5,6.3,37.1,7"></path>
		</defs>
		<use xlink:href="#SVGID_00000115516288875004070750000003956061518885366409_" style="overflow:visible;fill:#FFFFFF;"></use>
		<clipPath id="SVGID_00000047050374364017679260000011178296080636012679_">
			<use xlink:href="#SVGID_00000115516288875004070750000003956061518885366409_" style="overflow:visible;"></use>
		</clipPath>
		
			<rect x="35.1" y="5" style="clip-path:url(#SVGID_00000047050374364017679260000011178296080636012679_);fill:#FFFFFF;" width="3.8" height="6.9"></rect>
	</g>
	<g>
		<defs>
			<path id="SVGID_00000150812874026241316450000015105305564318968704_" d="M37,17.1c-1,0.3-2,0.7-2.8,0.9c-0.3,0.6-0.6,1.1-1,1.6     c0.9-0.2,1.6-0.4,2.9-0.6c1.7-0.3,2-0.3,3.6-0.9c1.2-0.4,2.4-1.5,2.9-2c-0.4-0.5-0.8-0.9-1-1.2C40.7,15.4,38.5,16.6,37,17.1"></path>
		</defs>
		<use xlink:href="#SVGID_00000150812874026241316450000015105305564318968704_" style="overflow:visible;fill:#FFFFFF;"></use>
		<clipPath id="SVGID_00000036213982800538423860000005554517475875067837_">
			<use xlink:href="#SVGID_00000150812874026241316450000015105305564318968704_" style="overflow:visible;"></use>
		</clipPath>
		
			<rect x="33.2" y="14.9" style="clip-path:url(#SVGID_00000036213982800538423860000005554517475875067837_);fill:#FFFFFF;" width="9.4" height="4.7"></rect>
	</g>
	<g>
		<defs>
			<path id="SVGID_00000036215452077264783090000010018549007169049494_" d="M44.2,23.6c-0.9,0.4-2.1,0.8-4.5,0.9     c-2.4,0.2-4.9-0.4-6.2-0.5c-1.1-0.1-3.4,0.1-4.8,0.3c-0.3,0.5-0.6,1-0.9,1.6c0.8-0.1,1.7-0.2,2.7-0.3h0c0,0,0.1,0,0.2,0     c0.8-0.1,1.7-0.1,2.5,0h0c1.1,0.1,2.2,0.3,2.9,0.4c1.3,0.2,1.9,0.2,3.2,0.2c1.3,0,2.8-0.3,4-0.6l-0.1,0c0.8-0.2,2.1-1,2.9-1.4     c0-0.6-0.1-1.2-0.2-1.8C45.6,22.9,44.8,23.4,44.2,23.6"></path>
		</defs>
		<use xlink:href="#SVGID_00000036215452077264783090000010018549007169049494_" style="overflow:visible;fill:#FFFFFF;"></use>
		<clipPath id="SVGID_00000099663968156437328100000002352964955456533378_">
			<use xlink:href="#SVGID_00000036215452077264783090000010018549007169049494_" style="overflow:visible;"></use>
		</clipPath>
		
			<rect x="27.8" y="22.5" style="clip-path:url(#SVGID_00000099663968156437328100000002352964955456533378_);fill:#FFFFFF;" width="18.4" height="3.8"></rect>
	</g>
	<g>
		<defs>
			<path id="SVGID_00000034782313279992990020000009154299358918330558_" d="M42.1,18.1c-0.9,0.6-2.5,1.3-4.1,1.5     c-1.6,0.3-2.8,0.3-3.8,0.4c-0.5,0.1-0.9,0.1-1.4,0.2c-0.6,0.7-1.1,1.2-1.5,1.6c0.4-0.1,0.8-0.1,1.2-0.2c1.3-0.1,2.2-0.1,3.9-0.1     c1.7,0,2.8-0.2,4.5-0.9c1.3-0.5,2.7-1.8,3.4-2.3c-0.3-0.4-0.6-0.8-0.9-1.2C43.1,17.4,42.6,17.7,42.1,18.1"></path>
		</defs>
		<use xlink:href="#SVGID_00000034782313279992990020000009154299358918330558_" style="overflow:visible;fill:#FFFFFF;"></use>
		<clipPath id="SVGID_00000173846051871738924570000002753021908898879889_">
			<use xlink:href="#SVGID_00000034782313279992990020000009154299358918330558_" style="overflow:visible;"></use>
		</clipPath>
		
			<rect x="31.2" y="17.1" style="clip-path:url(#SVGID_00000173846051871738924570000002753021908898879889_);fill:#FFFFFF;" width="13.1" height="4.6"></rect>
	</g>
	<g>
		<defs>
			<path id="SVGID_00000172435725479372411630000015073483883095780539_" d="M42.5,21.1c-1.4,0.7-3.8,1.1-5.4,1.1     c-1.5,0-3.1-0.1-4.5-0.1c-0.6,0-1.5,0.1-2.2,0.2c-0.3,0.3-0.9,0.8-1.4,1.5c0.4-0.1,1-0.2,1.5-0.2c1.7-0.2,3.3,0,5.2,0.2     c2,0.2,2.5,0.2,4,0c1.5-0.2,2.6-0.8,3.7-1.5c0.7-0.4,1.5-1.1,2-1.5c-0.2-0.5-0.4-1-0.6-1.4C44.5,19.8,43.5,20.6,42.5,21.1"></path>
		</defs>
		<use xlink:href="#SVGID_00000172435725479372411630000015073483883095780539_" style="overflow:visible;fill:#FFFFFF;"></use>
		<clipPath id="SVGID_00000156564676296015360990000013877854453598216122_">
			<use xlink:href="#SVGID_00000172435725479372411630000015073483883095780539_" style="overflow:visible;"></use>
		</clipPath>
		
			<rect x="29.1" y="19.4" style="clip-path:url(#SVGID_00000156564676296015360990000013877854453598216122_);fill:#FFFFFF;" width="16.5" height="4.7"></rect>
	</g>
	<path class="st0" d="M58.2,65.9h0.5V63c0-0.2,0-0.5,0-0.5s0.2,0.3,0.3,0.5l1.3,1.7h0.1l1.3-1.7c0.1-0.2,0.3-0.5,0.3-0.5   s0,0.3,0,0.5v2.9h0.5v-4.5h-0.1l-2,2.6l-2.1-2.6h-0.1V65.9z M53.6,64.8l0.8-2c0.1-0.2,0.2-0.5,0.2-0.5s0.1,0.3,0.2,0.5l0.8,2H53.6z    M52.7,65.9h0.5l0.3-0.7h2.2l0.3,0.7h0.5l-1.9-4.5h-0.1L52.7,65.9z M50.8,66L50.8,66l0.1-4.5h-0.4v3c0,0.2,0,0.5,0,0.5   s-0.2-0.3-0.3-0.4l-2.6-3.1h-0.1v4.5h0.4v-3c0-0.2,0-0.5,0-0.5s0.2,0.3,0.3,0.4L50.8,66z M43.9,65.9h0.5v-4h1.4v-0.4h-3.2v0.4h1.4   V65.9z M38.2,65.9H41v-0.4h-2.3v-1.1h2V64h-2v-2.1h2.2v-0.4h-2.7V65.9z M35.6,65.9h0.5v-4.4h-0.5V65.9z M31.9,66L31.9,66l1.9-4.5   h-0.5l-1.2,3c-0.1,0.2-0.2,0.6-0.2,0.6s-0.1-0.4-0.2-0.6l-1.2-3h-0.5L31.9,66z M23.5,65.9h2.8v-0.4H24v-1.1h2V64h-2v-2.1h2.2v-0.4   h-2.7V65.9z M21.3,66L21.3,66l0.1-4.5H21v3c0,0.2,0,0.5,0,0.5s-0.2-0.3-0.3-0.4L18,61.5H18v4.5h0.4v-3c0-0.2,0-0.5,0-0.5   s0.2,0.3,0.3,0.4L21.3,66z M13.1,65.9h0.5v-4.4h-0.5V65.9z M9.4,66c0.9,0,1.6-0.5,1.6-1.6v-2.9h-0.5v2.9c0,0.8-0.4,1.2-1.1,1.2   c-0.7,0-1.1-0.4-1.1-1.2v-2.9H7.8v2.9C7.8,65.5,8.5,66,9.4,66 M1.5,65.9H2V63c0-0.2,0-0.5,0-0.5s0.2,0.3,0.3,0.5l1.3,1.7h0.1L5,63   c0.1-0.2,0.3-0.5,0.3-0.5s0,0.3,0,0.5v2.9h0.5v-4.5H5.7l-2,2.6l-2.1-2.6H1.5V65.9z"></path>
</g>
</svg>
